<svg width="582" height="51" viewBox="0 0 582 51" fill="none" xmlns="http://www.w3.org/2000/svg">
<path d="M550.145 49.6562V1.65625H558.841V42.3672H579.981V49.6562H550.145Z" fill="#282828"/>
<path d="M511.19 49.6562H501.909L518.807 1.65625H529.541L546.463 49.6562H537.182L524.362 11.5H523.987L511.19 49.6562ZM511.494 30.8359H536.807V37.8203H511.494V30.8359Z" fill="#282828"/>
<path d="M491.482 16.9844C491.091 15.7187 490.552 14.5859 489.865 13.5859C489.193 12.5703 488.381 11.7031 487.427 10.9844C486.49 10.2656 485.412 9.72656 484.193 9.36719C482.974 8.99219 481.646 8.80469 480.209 8.80469C477.631 8.80469 475.334 9.45312 473.318 10.75C471.302 12.0469 469.716 13.9531 468.56 16.4687C467.42 18.9687 466.849 22.0156 466.849 25.6094C466.849 29.2344 467.42 32.3047 468.56 34.8203C469.701 37.3359 471.287 39.25 473.318 40.5625C475.349 41.8594 477.709 42.5078 480.396 42.5078C482.834 42.5078 484.943 42.0391 486.724 41.1016C488.521 40.1641 489.904 38.8359 490.873 37.1172C491.841 35.3828 492.326 33.3516 492.326 31.0234L494.295 31.3281H481.263V24.5312H500.74V30.2969C500.74 34.4062 499.865 37.9609 498.115 40.9609C496.365 43.9609 493.959 46.2734 490.896 47.8984C487.834 49.5078 484.318 50.3125 480.349 50.3125C475.927 50.3125 472.045 49.3203 468.701 47.3359C465.373 45.3359 462.771 42.5 460.896 38.8281C459.037 35.1406 458.107 30.7656 458.107 25.7031C458.107 21.8281 458.654 18.3672 459.748 15.3203C460.857 12.2734 462.404 9.6875 464.388 7.5625C466.373 5.42187 468.701 3.79687 471.373 2.6875C474.045 1.5625 476.951 0.999998 480.091 0.999998C482.748 0.999998 485.224 1.39062 487.521 2.17187C489.818 2.9375 491.857 4.03125 493.638 5.45312C495.435 6.875 496.912 8.5625 498.068 10.5156C499.224 12.4688 499.982 14.625 500.341 16.9844H491.482Z" fill="#282828"/>
<path d="M421.876 49.6562V1.65625H453.095V8.94531H430.571V21.9766H451.478V29.2656H430.571V42.3672H453.282V49.6562H421.876Z" fill="#282828"/>
<path d="M387.133 49.6562V1.65625H395.829V42.3672H416.969V49.6562H387.133Z" fill="#282828"/>
<path d="M366.568 1.65625V49.6562H358.833L336.216 16.9609H335.818V49.6562H327.122V1.65625H334.903L357.497 34.375H357.919V1.65625H366.568Z" fill="#282828"/>
<path d="M288.166 49.6562H278.885L295.784 1.65625H306.518L323.44 49.6562H314.159L301.338 11.5H300.963L288.166 49.6562ZM288.471 30.8359H313.784V37.8203H288.471V30.8359Z" fill="#282828"/>
<path d="M275.168 1.65625V49.6562H267.433L244.816 16.9609H244.418V49.6562H235.723V1.65625H243.504L266.098 34.375H266.519V1.65625H275.168Z" fill="#282828"/>
<path d="M195.437 49.6562V1.65625H213.437C217.124 1.65625 220.218 2.29687 222.718 3.57812C225.234 4.85937 227.132 6.65625 228.413 8.96875C229.71 11.2656 230.359 13.9453 230.359 17.0078C230.359 20.0859 229.702 22.7578 228.39 25.0234C227.093 27.2734 225.179 29.0156 222.648 30.25C220.116 31.4688 217.007 32.0781 213.32 32.0781H200.499V24.8594H212.148C214.304 24.8594 216.07 24.5625 217.445 23.9687C218.82 23.3594 219.835 22.4766 220.491 21.3203C221.163 20.1484 221.499 18.7109 221.499 17.0078C221.499 15.3047 221.163 13.8516 220.491 12.6484C219.82 11.4297 218.796 10.5078 217.421 9.88281C216.046 9.24219 214.273 8.92188 212.101 8.92188H204.132V49.6562H195.437ZM220.234 27.9062L232.116 49.6562H222.413L210.741 27.9062H220.234Z" fill="#282828"/>
<path d="M157.987 49.6562V1.65625H189.206V8.94531H166.682V21.9766H187.588V29.2656H166.682V42.3672H189.393V49.6562H157.987Z" fill="#282828"/>
<path d="M121.955 49.6562V1.65625H152.705V8.94531H130.65V21.9766H150.596V29.2656H130.65V49.6562H121.955Z" fill="#282828"/>
<path d="M85.9231 49.6562V1.65625H116.673V8.94531H94.6184V21.9766H114.564V29.2656H94.6184V49.6562H85.9231Z" fill="#282828"/>
<path d="M48.4733 49.6562V1.65625H79.692V8.94531H57.1686V21.9766H78.0748V29.2656H57.1686V42.3672H79.8795V49.6562H48.4733Z" fill="#282828"/>
<path d="M2 49.6562V1.65625H10.6953V21.9766H32.9375V1.65625H41.6562V49.6562H32.9375V29.2656H10.6953V49.6562H2Z" fill="#282828"/>
</svg>
