<svg width="962" height="92" viewBox="0 0 962 92" fill="none" xmlns="http://www.w3.org/2000/svg">
<g clip-path="url(#clip0_142_404)">
<path d="M909.317 76.4223V74.2758L911.035 74.104C913.267 73.8751 914.898 73.5316 915.929 73.0737C916.959 72.6157 917.617 71.7571 917.904 70.4978C918.247 69.2385 918.419 67.3209 918.419 64.745V26.6219C918.419 24.046 918.247 22.1284 917.904 20.8691C917.617 19.6098 916.959 18.7512 915.929 18.2932C914.898 17.8353 913.267 17.4918 911.035 17.2629L909.317 17.0912V14.9446L922.197 15.2022L934.819 14.9446V17.0912L932.414 17.3487C930.64 17.5205 929.266 17.8639 928.293 18.3791C927.32 18.8943 926.633 19.7243 926.232 20.8691C925.889 21.9567 925.717 23.5309 925.717 25.5916V61.3963C925.717 64.7736 925.975 67.3495 926.49 69.124C927.005 70.8985 927.978 72.1006 929.409 72.7302C930.898 73.3599 933.016 73.6747 935.763 73.6747H942.203C946.897 73.6747 950.388 72.444 952.678 69.9826C955.025 67.5212 956.427 63.5715 956.885 58.1336H958.774L957.916 76.4223L922.025 76.1647L909.317 76.4223Z" fill="#282828"/>
<path d="M840.618 76.4222V74.2757L841.39 74.1898C843.451 73.9608 845.14 73.5601 846.456 72.9877C847.773 72.4153 848.889 71.5567 849.805 70.4118C850.721 69.2098 851.579 67.607 852.381 65.6035L873.331 14.7728H875.907L896.343 65.6035C897.545 68.5801 898.804 70.698 900.121 71.9574C901.494 73.1594 903.269 73.875 905.444 74.1039L907.161 74.2757V76.4222L896.514 76.1646L882.776 76.4222V74.2757L884.494 74.1039C887.356 73.8177 889.073 73.0736 889.645 71.8715C890.275 70.6122 890.017 68.4942 888.873 65.5177L871.528 21.8135H873.589L855.558 65.5177C854.699 67.6356 854.241 69.2956 854.184 70.4977C854.127 71.6425 854.585 72.4725 855.558 72.9877C856.531 73.5029 858.076 73.875 860.194 74.1039L861.912 74.2757V76.4222L851.007 76.1646L840.618 76.4222ZM859.765 54.3555L860.881 51.6079H883.892L884.923 54.3555H859.765Z" fill="#282828"/>
<path d="M808.577 77.1091C804.456 77.1091 800.62 76.365 797.071 74.8767C793.58 73.3312 790.546 71.1846 787.97 68.437C785.394 65.6321 783.391 62.3694 781.96 58.6486C780.529 54.8707 779.813 50.7493 779.813 46.2844C779.813 41.7623 780.557 37.555 782.045 33.6626C783.534 29.7129 785.594 26.2784 788.228 23.359C790.918 20.4397 794.038 18.15 797.587 16.49C801.136 14.83 804.971 14 809.092 14C810.981 14 812.842 14.2003 814.673 14.601C816.505 14.9445 818.451 15.66 820.512 16.7476C821.771 17.3773 822.744 17.8066 823.431 18.0355C824.118 18.2645 824.748 18.379 825.32 18.379C826.98 18.379 827.81 17.32 827.81 15.2021H829.957L829.785 25.0763L829.957 35.1222H827.81C827.696 31.4015 826.809 28.1674 825.149 25.4197C823.546 22.6149 821.342 20.4397 818.537 18.8942C815.789 17.3486 812.613 16.5759 809.006 16.5759C802.538 16.5759 797.501 19.1518 793.895 24.3035C790.346 29.4553 788.571 36.725 788.571 46.1127C788.571 55.2714 790.288 62.3121 793.723 67.2349C797.215 72.1005 802.195 74.5333 808.663 74.5333C811.697 74.5333 814.473 74.0467 816.992 73.0736C819.51 72.0432 821.514 70.698 823.002 69.038C824.547 67.378 825.32 65.5749 825.32 63.6287V61.2245C825.32 58.7059 824.719 56.9028 823.517 55.8152C822.372 54.7276 820.226 54.0407 817.077 53.7545L813.385 53.411V51.3503L827.639 51.6938L840.861 51.3503V53.411L836.998 53.7545C833.506 54.0979 831.76 56.5879 831.76 61.2245V62.7701C831.76 64.9452 832.39 67.149 833.649 69.3815L834.851 71.5281L832.876 72.816C831.502 70.7553 830.043 69.7249 828.497 69.7249C827.925 69.7249 827.41 69.8394 826.952 70.0684C826.551 70.2401 825.549 70.8984 823.946 72.0432C821.485 73.8177 819.024 75.1057 816.562 75.9071C814.101 76.7084 811.439 77.1091 808.577 77.1091Z" fill="#282828"/>
<path d="M722.164 76.4223V74.2758L723.881 74.104C726.113 73.8178 727.745 73.4457 728.775 72.9878C729.805 72.5299 730.464 71.6713 730.75 70.4119C731.093 69.1526 731.265 67.2636 731.265 64.745V26.6219C731.265 24.046 731.093 22.1571 730.75 20.955C730.464 19.6957 729.805 18.837 728.775 18.3791C727.745 17.8639 726.113 17.4918 723.881 17.2629L722.164 17.0912V14.9446L734.871 15.2022H757.453L768.186 14.9446L768.358 21.3843L769.045 29.2837H766.984C766.583 26.765 766.068 24.7616 765.438 23.2733C764.866 21.7277 763.979 20.5543 762.777 19.7529C761.632 18.9515 760.029 18.4077 757.968 18.1215C755.908 17.8353 753.217 17.6922 749.897 17.6922H738.563V66.9774C738.563 69.6105 739.136 71.4137 740.281 72.3868C741.483 73.3026 743.744 73.7606 747.064 73.7606H755.049C758.484 73.7606 761.117 73.3599 762.948 72.5585C764.837 71.7571 766.211 70.2402 767.07 68.0078C767.928 65.7181 768.529 62.4267 768.873 58.1336H771.019L770.418 68.4371L770.161 76.1647H734.871L722.164 76.4223ZM754.276 56.7598C754.276 52.8101 753.79 49.9194 752.817 48.0876C751.843 46.1986 750.298 45.2541 748.18 45.2541H738.048V42.85H748.18C750.183 42.85 751.643 42.0486 752.559 40.4458C753.532 38.8431 754.105 36.2099 754.276 32.5465H756.423L756.165 44.0521L756.423 56.7598H754.276Z" fill="#282828"/>
<path d="M666.235 76.4223V74.2758L667.953 74.104C670.185 73.8751 671.817 73.5316 672.847 73.0737C673.877 72.6157 674.536 71.7571 674.822 70.4978C675.165 69.2385 675.337 67.3209 675.337 64.745V26.6219C675.337 24.046 675.165 22.1284 674.822 20.8691C674.536 19.6098 673.877 18.7512 672.847 18.2932C671.817 17.8353 670.185 17.4918 667.953 17.2629L666.235 17.0912V14.9446L679.115 15.2022L691.737 14.9446V17.0912L689.333 17.3487C687.558 17.5205 686.184 17.8639 685.211 18.3791C684.238 18.8943 683.551 19.7243 683.15 20.8691C682.807 21.9567 682.635 23.5309 682.635 25.5916V61.3963C682.635 64.7736 682.893 67.3495 683.408 69.124C683.923 70.8985 684.896 72.1006 686.327 72.7302C687.816 73.3599 689.934 73.6747 692.681 73.6747H699.121C703.815 73.6747 707.306 72.444 709.596 69.9826C711.943 67.5212 713.345 63.5715 713.803 58.1336H715.692L714.834 76.4223L678.943 76.1647L666.235 76.4223Z" fill="#282828"/>
<path d="M626.745 76.1647C625.657 73.9895 623.997 71.2133 621.765 67.836C619.59 64.4015 617.042 60.6522 614.123 56.588C611.261 52.5238 608.199 48.3738 604.936 44.1379C601.73 39.8448 598.467 35.6947 595.147 31.6878C591.885 27.6809 588.794 24.0747 585.874 20.8691C585.13 20.0105 584.386 19.3236 583.642 18.8084C582.898 18.236 582.125 17.8353 581.324 17.6063C580.522 17.3201 579.635 17.177 578.662 17.177H576.086V14.9446L592.743 15.2022C593.545 16.2898 594.804 18.007 596.521 20.3539C598.239 22.6436 600.213 25.2767 602.446 28.2533C604.735 31.2299 607.082 34.3496 609.487 37.6123C611.948 40.8751 614.324 44.0234 616.613 47.0573C618.96 50.0911 621.049 52.8101 622.881 55.2142C624.713 57.5611 626.115 59.3643 627.088 60.6236L625.886 62.7701V26.6219C625.886 24.046 625.715 22.1284 625.371 20.8691C625.085 19.6098 624.427 18.7512 623.396 18.2932C622.366 17.8353 620.735 17.4918 618.502 17.2629L616.785 17.0912V14.9446L627.947 15.2022L638.422 14.9446V17.0912L636.705 17.2629C634.53 17.4918 632.898 17.8639 631.811 18.3791C630.781 18.837 630.094 19.6957 629.75 20.955C629.464 22.1571 629.321 24.046 629.321 26.6219V76.1647H626.745ZM576.429 76.5082V74.3616L578.147 74.1899C580.379 73.9609 582.01 73.6175 583.041 73.1595C584.071 72.7016 584.729 71.843 585.016 70.5836C585.359 69.2671 585.531 67.3209 585.531 64.745V19.5812L588.965 19.667V64.745C588.965 67.3209 589.108 69.2671 589.395 70.5836C589.738 71.843 590.425 72.7016 591.455 73.1595C592.543 73.6175 594.174 73.9609 596.35 74.1899L598.067 74.3616V76.5082L587.076 76.1647L576.429 76.5082Z" fill="#282828"/>
<path d="M507.815 76.4222V74.2757L508.588 74.1898C510.648 73.9608 512.337 73.5601 513.654 72.9877C514.97 72.4153 516.086 71.5567 517.002 70.4118C517.918 69.2098 518.777 67.607 519.578 65.6035L540.529 14.7728H543.105L563.54 65.6035C564.742 68.5801 566.001 70.698 567.318 71.9574C568.692 73.1594 570.466 73.875 572.641 74.1039L574.359 74.2757V76.4222L563.712 76.1646L549.974 76.4222V74.2757L551.691 74.1039C554.553 73.8177 556.27 73.0736 556.843 71.8715C557.472 70.6122 557.215 68.4942 556.07 65.5177L538.726 21.8135H540.786L522.755 65.5177C521.896 67.6356 521.439 69.2956 521.381 70.4977C521.324 71.6425 521.782 72.4725 522.755 72.9877C523.728 73.5029 525.274 73.875 527.392 74.1039L529.109 74.2757V76.4222L518.204 76.1646L507.815 76.4222ZM526.962 54.3555L528.079 51.6079H551.09L552.12 54.3555H526.962Z" fill="#282828"/>
<path d="M499.125 76.1647C498.037 73.9895 496.377 71.2133 494.145 67.836C491.97 64.4015 489.422 60.6522 486.503 56.588C483.641 52.5238 480.578 48.3738 477.316 44.1379C474.11 39.8448 470.847 35.6947 467.527 31.6878C464.264 27.6809 461.173 24.0747 458.254 20.8691C457.51 20.0105 456.766 19.3236 456.022 18.8084C455.277 18.236 454.505 17.8353 453.703 17.6063C452.902 17.3201 452.015 17.177 451.042 17.177H448.466V14.9446L465.123 15.2022C465.924 16.2898 467.184 18.007 468.901 20.3539C470.618 22.6436 472.593 25.2767 474.826 28.2533C477.115 31.2299 479.462 34.3496 481.866 37.6123C484.328 40.8751 486.703 44.0234 488.993 47.0573C491.34 50.0911 493.429 52.8101 495.261 55.2142C497.093 57.5611 498.495 59.3643 499.468 60.6236L498.266 62.7701V26.6219C498.266 24.046 498.094 22.1284 497.751 20.8691C497.465 19.6098 496.806 18.7512 495.776 18.2932C494.746 17.8353 493.114 17.4918 490.882 17.2629L489.165 17.0912V14.9446L500.327 15.2022L510.802 14.9446V17.0912L509.085 17.2629C506.91 17.4918 505.278 17.8639 504.191 18.3791C503.16 18.837 502.473 19.6957 502.13 20.955C501.844 22.1571 501.701 24.046 501.701 26.6219V76.1647H499.125ZM448.809 76.5082V74.3616L450.526 74.1899C452.759 73.9609 454.39 73.6175 455.421 73.1595C456.451 72.7016 457.109 71.843 457.395 70.5836C457.739 69.2671 457.911 67.3209 457.911 64.745V19.5812L461.345 19.667V64.745C461.345 67.3209 461.488 69.2671 461.774 70.5836C462.118 71.843 462.805 72.7016 463.835 73.1595C464.923 73.6175 466.554 73.9609 468.729 74.1899L470.447 74.3616V76.5082L459.456 76.1647L448.809 76.5082Z" fill="#282828"/>
<path d="M438.05 77.1092C435.13 77.1092 432.841 76.1934 431.181 74.3616C429.521 72.4726 428.433 69.6105 427.918 65.7753C427.346 61.2532 426.287 57.5898 424.741 54.7849C423.253 51.9228 421.249 49.8335 418.731 48.5169C416.212 47.1431 413.064 46.4562 409.286 46.4562H405.078V44.1379H412.806C418.072 44.1379 421.85 43.0789 424.14 40.961C426.487 38.8431 427.66 35.4372 427.66 30.7433C427.66 26.164 426.544 22.8153 424.312 20.6974C422.137 18.5222 418.731 17.4346 414.094 17.4346H405.594V64.745C405.594 67.3209 405.737 69.2385 406.023 70.4978C406.366 71.7571 407.053 72.6157 408.084 73.0737C409.171 73.5316 410.803 73.8751 412.978 74.104L414.695 74.2758V76.4223L401.902 76.1647L389.194 76.4223V74.2758L390.911 74.104C393.144 73.8751 394.775 73.5316 395.805 73.0737C396.836 72.5585 397.494 71.6713 397.78 70.4119C398.124 69.1526 398.295 67.2636 398.295 64.745V26.6219C398.295 24.046 398.124 22.1284 397.78 20.8691C397.494 19.6098 396.836 18.7512 395.805 18.2932C394.775 17.8353 393.144 17.4918 390.911 17.2629L389.194 17.0912V14.9446L401.902 15.2022H413.922C421.078 15.2022 426.516 16.4901 430.236 19.066C433.957 21.5846 435.817 25.3054 435.817 30.2282C435.817 34.7503 434.272 38.3565 431.181 41.0469C428.147 43.7372 423.682 45.3972 417.786 46.0269L417.872 45.7693C422.623 45.7693 426.458 47.1145 429.378 49.8049C432.297 52.4952 434.129 56.4735 434.873 61.7398C435.503 65.7467 436.418 68.8092 437.62 70.9271C438.88 72.9878 440.397 74.0182 442.171 74.0182C442.915 74.0182 444.032 73.7033 445.52 73.0737L446.293 75.1344C445.262 75.7068 443.974 76.1647 442.429 76.5082C440.94 76.9089 439.481 77.1092 438.05 77.1092Z" fill="#282828"/>
<path d="M333.433 76.4223V74.2758L335.15 74.104C337.383 73.8178 339.014 73.4457 340.045 72.9878C341.075 72.5299 341.733 71.6713 342.019 70.4119C342.363 69.1526 342.535 67.2636 342.535 64.745V26.6219C342.535 24.046 342.363 22.1571 342.019 20.955C341.733 19.6957 341.075 18.837 340.045 18.3791C339.014 17.8639 337.383 17.4918 335.15 17.2629L333.433 17.0912V14.9446L346.141 15.2022H368.723L379.456 14.9446L379.627 21.3843L380.314 29.2837H378.253C377.853 26.765 377.338 24.7616 376.708 23.2733C376.136 21.7277 375.248 20.5543 374.046 19.7529C372.901 18.9515 371.299 18.4077 369.238 18.1215C367.177 17.8353 364.487 17.6922 361.167 17.6922H349.833V66.9774C349.833 69.6105 350.405 71.4137 351.55 72.3868C352.752 73.3026 355.013 73.7606 358.333 73.7606H366.319C369.753 73.7606 372.386 73.3599 374.218 72.5585C376.107 71.7571 377.481 70.2402 378.339 68.0078C379.198 65.7181 379.799 62.4267 380.142 58.1336H382.289L381.688 68.4371L381.43 76.1647H346.141L333.433 76.4223ZM365.546 56.7598C365.546 52.8101 365.059 49.9194 364.086 48.0876C363.113 46.1986 361.567 45.2541 359.45 45.2541H349.318V42.85H359.45C361.453 42.85 362.913 42.0486 363.829 40.4458C364.802 38.8431 365.374 36.2099 365.546 32.5465H367.692L367.435 44.0521L367.692 56.7598H365.546Z" fill="#282828"/>
<path d="M281.278 76.4223V74.2758L282.996 74.104C285.228 73.8178 286.86 73.4457 287.89 72.9878C288.92 72.5299 289.579 71.6713 289.865 70.4119C290.208 69.1526 290.38 67.2636 290.38 64.745V26.6219C290.38 24.046 290.208 22.1571 289.865 20.955C289.579 19.6957 288.92 18.837 287.89 18.3791C286.86 17.8639 285.228 17.4918 282.996 17.2629L281.278 17.0912V14.9446L293.986 15.2022H318.028L328.503 14.9446L328.761 21.4702L329.533 29.1119H327.473C327.129 25.1623 325.698 22.2715 323.179 20.4398C320.661 18.6081 316.854 17.6922 311.76 17.6922H297.678V64.745C297.678 67.2636 297.85 69.1812 298.193 70.4978C298.537 71.7571 299.224 72.6444 300.254 73.1595C301.342 73.6175 302.944 73.9323 305.062 74.104L307.982 74.2758V76.4223L294.072 76.1647H293.986L281.278 76.4223ZM313.391 56.7598C313.391 52.8101 312.905 49.9194 311.931 48.0876C310.958 46.1986 309.413 45.2541 307.295 45.2541H297.163V42.85H307.295C309.298 42.85 310.758 42.0486 311.674 40.4458C312.647 38.8431 313.219 36.2099 313.391 32.5465H315.538L315.28 44.0521L315.538 56.7598H313.391Z" fill="#282828"/>
<path d="M229.123 76.4223V74.2758L230.841 74.104C233.073 73.8178 234.704 73.4457 235.735 72.9878C236.765 72.5299 237.423 71.6713 237.71 70.4119C238.053 69.1526 238.225 67.2636 238.225 64.745V26.6219C238.225 24.046 238.053 22.1571 237.71 20.955C237.423 19.6957 236.765 18.837 235.735 18.3791C234.704 17.8639 233.073 17.4918 230.841 17.2629L229.123 17.0912V14.9446L241.831 15.2022H265.873L276.348 14.9446L276.606 21.4702L277.378 29.1119H275.318C274.974 25.1623 273.543 22.2715 271.024 20.4398C268.506 18.6081 264.699 17.6922 259.605 17.6922H245.523V64.745C245.523 67.2636 245.695 69.1812 246.038 70.4978C246.382 71.7571 247.069 72.6444 248.099 73.1595C249.187 73.6175 250.789 73.9323 252.907 74.104L255.827 74.2758V76.4223L241.917 76.1647H241.831L229.123 76.4223ZM261.236 56.7598C261.236 52.8101 260.75 49.9194 259.776 48.0876C258.803 46.1986 257.258 45.2541 255.14 45.2541H245.008V42.85H255.14C257.143 42.85 258.603 42.0486 259.519 40.4458C260.492 38.8431 261.064 36.2099 261.236 32.5465H263.383L263.125 44.0521L263.383 56.7598H261.236Z" fill="#282828"/>
<path d="M173.363 76.4223V74.2758L175.08 74.104C177.313 73.8178 178.944 73.4457 179.974 72.9878C181.005 72.5299 181.663 71.6713 181.949 70.4119C182.293 69.1526 182.464 67.2636 182.464 64.745V26.6219C182.464 24.046 182.293 22.1571 181.949 20.955C181.663 19.6957 181.005 18.837 179.974 18.3791C178.944 17.8639 177.313 17.4918 175.08 17.2629L173.363 17.0912V14.9446L186.071 15.2022H208.653L219.385 14.9446L219.557 21.3843L220.244 29.2837H218.183C217.783 26.765 217.268 24.7616 216.638 23.2733C216.065 21.7277 215.178 20.5543 213.976 19.7529C212.831 18.9515 211.229 18.4077 209.168 18.1215C207.107 17.8353 204.417 17.6922 201.097 17.6922H189.763V66.9774C189.763 69.6105 190.335 71.4137 191.48 72.3868C192.682 73.3026 194.943 73.7606 198.263 73.7606H206.248C209.683 73.7606 212.316 73.3599 214.148 72.5585C216.037 71.7571 217.411 70.2402 218.269 68.0078C219.128 65.7181 219.729 62.4267 220.072 58.1336H222.219L221.618 68.4371L221.36 76.1647H186.071L173.363 76.4223ZM205.476 56.7598C205.476 52.8101 204.989 49.9194 204.016 48.0876C203.043 46.1986 201.497 45.2541 199.379 45.2541H189.248V42.85H199.379C201.383 42.85 202.843 42.0486 203.758 40.4458C204.732 38.8431 205.304 36.2099 205.476 32.5465H207.622L207.365 44.0521L207.622 56.7598H205.476Z" fill="#282828"/>
<path d="M141.012 76.4223V74.2758L142.729 74.104C144.962 73.8178 146.593 73.4457 147.623 72.9878C148.654 72.5299 149.312 71.6713 149.598 70.4119C149.942 69.1526 150.114 67.2636 150.114 64.745V26.6219C150.114 24.046 149.942 22.1571 149.598 20.955C149.312 19.6957 148.654 18.837 147.623 18.3791C146.593 17.8639 144.962 17.4918 142.729 17.2629L141.012 17.0912V14.9446L153.806 15.2022L166.513 14.9446V17.0912L164.796 17.2629C162.621 17.4918 160.989 17.8639 159.902 18.3791C158.872 18.837 158.185 19.6957 157.841 20.955C157.555 22.1571 157.412 24.046 157.412 26.6219V64.745C157.412 67.2636 157.555 69.1526 157.841 70.4119C158.185 71.6713 158.872 72.5299 159.902 72.9878C160.989 73.4457 162.621 73.8178 164.796 74.104L166.513 74.2758V76.4223L153.806 76.1647L141.012 76.4223ZM101 76.4223V74.2758L102.717 74.104C104.95 73.8178 106.581 73.4457 107.611 72.9878C108.642 72.5299 109.3 71.6713 109.586 70.4119C109.93 69.1526 110.101 67.2636 110.101 64.745V26.6219C110.101 24.046 109.93 22.1571 109.586 20.955C109.3 19.6957 108.642 18.837 107.611 18.3791C106.581 17.8639 104.95 17.4918 102.717 17.2629L101 17.0912V14.9446L113.794 15.2022L126.501 14.9446V17.0912L124.784 17.2629C122.609 17.4918 120.977 17.8639 119.89 18.3791C118.859 18.837 118.173 19.6957 117.829 20.955C117.543 22.1571 117.4 24.046 117.4 26.6219V64.745C117.4 67.2636 117.543 69.1526 117.829 70.4119C118.173 71.6713 118.859 72.5299 119.89 72.9878C120.977 73.4457 122.609 73.8178 124.784 74.104L126.501 74.2758V76.4223L113.794 76.1647L101 76.4223ZM114.566 46.0269V43.2793H152.518V46.0269H114.566Z" fill="#282828"/>
<path d="M85 91.9117H0V-0.588318H85V91.9117ZM57.1631 7.12946L46.3428 6.91168V8.72711L47.7949 8.87262C49.6831 9.06628 51.0631 9.38122 51.9346 9.81696C52.8059 10.2043 53.3624 10.9306 53.6045 11.9957C53.8949 13.0124 54.04 14.6101 54.04 16.7886V30.8775H26.3711V16.7886C26.3711 14.6101 26.4923 13.0124 26.7344 11.9957C27.0249 10.9305 27.6061 10.2043 28.4775 9.81696C29.3974 9.3813 30.7768 9.06627 32.6162 8.87262L34.0693 8.72711V6.91168L23.3213 7.12946L12.5 6.91168V8.72711L13.9521 8.87262C15.8403 9.06627 17.2203 9.38124 18.0918 9.81696C18.9633 10.2043 19.5206 10.9305 19.7627 11.9957C20.0531 13.0124 20.1982 14.6102 20.1982 16.7886V49.0328C20.1982 51.1627 20.0531 52.7606 19.7627 53.8257C19.5206 54.8909 18.9633 55.6171 18.0918 56.0045C17.2203 56.3918 15.8403 56.7067 13.9521 56.9488L12.5 57.0943V58.9097L23.3213 58.692L34.0693 58.9097V57.0943L32.6162 56.9488C30.7768 56.7067 29.3973 56.3917 28.4775 56.0045C27.6061 55.6171 27.0249 54.8909 26.7344 53.8257C26.4924 52.7606 26.3711 51.1628 26.3711 49.0328V33.2017H32.2393C33.2724 33.3739 34.08 33.5871 34.6611 33.8453C35.5325 34.2326 36.0899 34.959 36.332 36.024C36.6225 37.0891 36.7676 38.7115 36.7676 40.8902V73.1343C36.7676 75.313 36.6225 76.9354 36.332 78.0005C36.0899 79.0656 35.5326 79.7919 34.6611 80.1793C33.7897 80.5665 32.4101 80.8567 30.5225 81.0504L29.0693 81.1959V83.0113L39.8174 82.7935L70.1738 83.0113L70.9004 67.5425H69.3027C68.9154 72.142 67.7292 75.4831 65.7441 77.565C63.8075 79.6467 60.8537 80.6871 56.8838 80.6871H51.4375C49.1136 80.6871 47.3223 80.4208 46.0635 79.8882C44.8531 79.3557 44.0295 78.3393 43.5938 76.8384C43.158 75.3376 42.9404 73.1587 42.9404 70.3023V40.0181C42.9405 38.2754 43.0855 36.9438 43.376 36.024C43.7149 35.0559 44.2962 34.3542 45.1191 33.9185C45.7151 33.603 46.4891 33.3649 47.4404 33.2017H54.04V49.0328C54.04 51.1628 53.8949 52.7606 53.6045 53.8257C53.3624 54.8908 52.8059 55.6171 51.9346 56.0045C51.0631 56.3918 49.6831 56.7067 47.7949 56.9488L46.3428 57.0943V58.9097L57.1631 58.692L67.9111 58.9097V57.0943L66.459 56.9488C64.6192 56.7067 63.2392 56.3918 62.3193 56.0045C61.448 55.6171 60.8666 54.8908 60.5762 53.8257C60.3342 52.7606 60.2139 51.1627 60.2139 49.0328V16.7886C60.2139 14.6102 60.3342 13.0124 60.5762 11.9957C60.8666 10.9306 61.448 10.2043 62.3193 9.81696C63.2392 9.38122 64.6192 9.06628 66.459 8.87262L67.9111 8.72711V6.91168L57.1631 7.12946Z" fill="#282828"/>
</g>
<defs>
<clipPath id="clip0_142_404">
<rect width="962" height="92" fill="white"/>
</clipPath>
</defs>
</svg>
