<svg width="976" height="92" viewBox="0 0 976 92" fill="none" xmlns="http://www.w3.org/2000/svg">
<g clip-path="url(#clip0_142_404)">
<path d="M922.317 76.4223V74.2758L924.035 74.104C926.267 73.8751 927.898 73.5316 928.929 73.0737C929.959 72.6157 930.617 71.7571 930.904 70.4978C931.247 69.2385 931.419 67.3209 931.419 64.745V26.6219C931.419 24.046 931.247 22.1284 930.904 20.8691C930.617 19.6098 929.959 18.7512 928.929 18.2932C927.898 17.8353 926.267 17.4918 924.035 17.2629L922.317 17.0912V14.9446L935.197 15.2022L947.819 14.9446V17.0912L945.414 17.3487C943.64 17.5205 942.266 17.8639 941.293 18.3791C940.32 18.8943 939.633 19.7243 939.232 20.8691C938.889 21.9567 938.717 23.5309 938.717 25.5916V61.3963C938.717 64.7736 938.975 67.3495 939.49 69.124C940.005 70.8985 940.978 72.1006 942.409 72.7302C943.898 73.3599 946.016 73.6747 948.763 73.6747H955.203C959.897 73.6747 963.388 72.444 965.678 69.9826C968.025 67.5212 969.427 63.5715 969.885 58.1336H971.774L970.916 76.4223L935.025 76.1647L922.317 76.4223Z" fill="#282828"/>
<path d="M853.618 76.4222V74.2757L854.39 74.1898C856.451 73.9608 858.14 73.5601 859.456 72.9877C860.773 72.4153 861.889 71.5567 862.805 70.4118C863.721 69.2098 864.579 67.607 865.381 65.6035L886.331 14.7728H888.907L909.343 65.6035C910.545 68.5801 911.804 70.698 913.121 71.9574C914.494 73.1594 916.269 73.875 918.444 74.1039L920.161 74.2757V76.4222L909.514 76.1646L895.776 76.4222V74.2757L897.494 74.1039C900.356 73.8177 902.073 73.0736 902.645 71.8715C903.275 70.6122 903.017 68.4942 901.873 65.5177L884.528 21.8135H886.589L868.558 65.5177C867.699 67.6356 867.241 69.2956 867.184 70.4977C867.127 71.6425 867.585 72.4725 868.558 72.9877C869.531 73.5029 871.076 73.875 873.194 74.1039L874.912 74.2757V76.4222L864.007 76.1646L853.618 76.4222ZM872.765 54.3555L873.881 51.6079H896.892L897.923 54.3555H872.765Z" fill="#282828"/>
<path d="M821.577 77.1091C817.456 77.1091 813.62 76.365 810.071 74.8767C806.58 73.3312 803.546 71.1846 800.97 68.437C798.394 65.6321 796.391 62.3694 794.96 58.6486C793.529 54.8707 792.813 50.7493 792.813 46.2844C792.813 41.7623 793.557 37.555 795.045 33.6626C796.534 29.7129 798.594 26.2784 801.228 23.359C803.918 20.4397 807.038 18.15 810.587 16.49C814.136 14.83 817.971 14 822.092 14C823.981 14 825.842 14.2003 827.673 14.601C829.505 14.9445 831.451 15.66 833.512 16.7476C834.771 17.3773 835.744 17.8066 836.431 18.0355C837.118 18.2645 837.748 18.379 838.32 18.379C839.98 18.379 840.81 17.32 840.81 15.2021H842.957L842.785 25.0763L842.957 35.1222H840.81C840.696 31.4015 839.809 28.1674 838.149 25.4197C836.546 22.6149 834.342 20.4397 831.537 18.8942C828.789 17.3486 825.613 16.5759 822.006 16.5759C815.538 16.5759 810.501 19.1518 806.895 24.3035C803.346 29.4553 801.571 36.725 801.571 46.1127C801.571 55.2714 803.288 62.3121 806.723 67.2349C810.215 72.1005 815.195 74.5333 821.663 74.5333C824.697 74.5333 827.473 74.0467 829.992 73.0736C832.51 72.0432 834.514 70.698 836.002 69.038C837.547 67.378 838.32 65.5749 838.32 63.6287V61.2245C838.32 58.7059 837.719 56.9028 836.517 55.8152C835.372 54.7276 833.226 54.0407 830.077 53.7545L826.385 53.411V51.3503L840.639 51.6938L853.861 51.3503V53.411L849.998 53.7545C846.506 54.0979 844.76 56.5879 844.76 61.2245V62.7701C844.76 64.9452 845.39 67.149 846.649 69.3815L847.851 71.5281L845.876 72.816C844.502 70.7553 843.043 69.7249 841.497 69.7249C840.925 69.7249 840.41 69.8394 839.952 70.0684C839.551 70.2401 838.549 70.8984 836.946 72.0432C834.485 73.8177 832.024 75.1057 829.562 75.9071C827.101 76.7084 824.439 77.1091 821.577 77.1091Z" fill="#282828"/>
<path d="M735.164 76.4223V74.2758L736.881 74.104C739.113 73.8178 740.745 73.4457 741.775 72.9878C742.805 72.5299 743.464 71.6713 743.75 70.4119C744.093 69.1526 744.265 67.2636 744.265 64.745V26.6219C744.265 24.046 744.093 22.1571 743.75 20.955C743.464 19.6957 742.805 18.837 741.775 18.3791C740.745 17.8639 739.113 17.4918 736.881 17.2629L735.164 17.0912V14.9446L747.871 15.2022H770.453L781.186 14.9446L781.358 21.3843L782.045 29.2837H779.984C779.583 26.765 779.068 24.7616 778.438 23.2733C777.866 21.7277 776.979 20.5543 775.777 19.7529C774.632 18.9515 773.029 18.4077 770.968 18.1215C768.908 17.8353 766.217 17.6922 762.897 17.6922H751.563V66.9774C751.563 69.6105 752.136 71.4137 753.281 72.3868C754.483 73.3026 756.744 73.7606 760.064 73.7606H768.049C771.484 73.7606 774.117 73.3599 775.948 72.5585C777.837 71.7571 779.211 70.2402 780.07 68.0078C780.928 65.7181 781.529 62.4267 781.873 58.1336H784.019L783.418 68.4371L783.161 76.1647H747.871L735.164 76.4223ZM767.276 56.7598C767.276 52.8101 766.79 49.9194 765.817 48.0876C764.843 46.1986 763.298 45.2541 761.18 45.2541H751.048V42.85H761.18C763.183 42.85 764.643 42.0486 765.559 40.4458C766.532 38.8431 767.105 36.2099 767.276 32.5465H769.423L769.165 44.0521L769.423 56.7598H767.276Z" fill="#282828"/>
<path d="M679.235 76.4223V74.2758L680.953 74.104C683.185 73.8751 684.817 73.5316 685.847 73.0737C686.877 72.6157 687.536 71.7571 687.822 70.4978C688.165 69.2385 688.337 67.3209 688.337 64.745V26.6219C688.337 24.046 688.165 22.1284 687.822 20.8691C687.536 19.6098 686.877 18.7512 685.847 18.2932C684.817 17.8353 683.185 17.4918 680.953 17.2629L679.235 17.0912V14.9446L692.115 15.2022L704.737 14.9446V17.0912L702.333 17.3487C700.558 17.5205 699.184 17.8639 698.211 18.3791C697.238 18.8943 696.551 19.7243 696.15 20.8691C695.807 21.9567 695.635 23.5309 695.635 25.5916V61.3963C695.635 64.7736 695.893 67.3495 696.408 69.124C696.923 70.8985 697.896 72.1006 699.327 72.7302C700.816 73.3599 702.934 73.6747 705.681 73.6747H712.121C716.815 73.6747 720.306 72.444 722.596 69.9826C724.943 67.5212 726.345 63.5715 726.803 58.1336H728.692L727.834 76.4223L691.943 76.1647L679.235 76.4223Z" fill="#282828"/>
<path d="M639.745 76.1647C638.657 73.9895 636.997 71.2133 634.765 67.836C632.59 64.4015 630.042 60.6522 627.123 56.588C624.261 52.5238 621.199 48.3738 617.936 44.1379C614.73 39.8448 611.467 35.6947 608.147 31.6878C604.885 27.6809 601.794 24.0747 598.874 20.8691C598.13 20.0105 597.386 19.3236 596.642 18.8084C595.898 18.236 595.125 17.8353 594.324 17.6063C593.522 17.3201 592.635 17.177 591.662 17.177H589.086V14.9446L605.743 15.2022C606.545 16.2898 607.804 18.007 609.521 20.3539C611.239 22.6436 613.213 25.2767 615.446 28.2533C617.735 31.2299 620.082 34.3496 622.487 37.6123C624.948 40.8751 627.324 44.0234 629.613 47.0573C631.96 50.0911 634.049 52.8101 635.881 55.2142C637.713 57.5611 639.115 59.3643 640.088 60.6236L638.886 62.7701V26.6219C638.886 24.046 638.715 22.1284 638.371 20.8691C638.085 19.6098 637.427 18.7512 636.396 18.2932C635.366 17.8353 633.735 17.4918 631.502 17.2629L629.785 17.0912V14.9446L640.947 15.2022L651.422 14.9446V17.0912L649.705 17.2629C647.53 17.4918 645.898 17.8639 644.811 18.3791C643.781 18.837 643.094 19.6957 642.75 20.955C642.464 22.1571 642.321 24.046 642.321 26.6219V76.1647H639.745ZM589.429 76.5082V74.3616L591.147 74.1899C593.379 73.9609 595.01 73.6175 596.041 73.1595C597.071 72.7016 597.729 71.843 598.016 70.5836C598.359 69.2671 598.531 67.3209 598.531 64.745V19.5812L601.965 19.667V64.745C601.965 67.3209 602.108 69.2671 602.395 70.5836C602.738 71.843 603.425 72.7016 604.455 73.1595C605.543 73.6175 607.174 73.9609 609.35 74.1899L611.067 74.3616V76.5082L600.076 76.1647L589.429 76.5082Z" fill="#282828"/>
<path d="M520.815 76.4222V74.2757L521.588 74.1898C523.648 73.9608 525.337 73.5601 526.654 72.9877C527.97 72.4153 529.086 71.5567 530.002 70.4118C530.918 69.2098 531.777 67.607 532.578 65.6035L553.529 14.7728H556.105L576.54 65.6035C577.742 68.5801 579.001 70.698 580.318 71.9574C581.692 73.1594 583.466 73.875 585.641 74.1039L587.359 74.2757V76.4222L576.712 76.1646L562.974 76.4222V74.2757L564.691 74.1039C567.553 73.8177 569.27 73.0736 569.843 71.8715C570.472 70.6122 570.215 68.4942 569.07 65.5177L551.726 21.8135H553.786L535.755 65.5177C534.896 67.6356 534.439 69.2956 534.381 70.4977C534.324 71.6425 534.782 72.4725 535.755 72.9877C536.728 73.5029 538.274 73.875 540.392 74.1039L542.109 74.2757V76.4222L531.204 76.1646L520.815 76.4222ZM539.962 54.3555L541.079 51.6079H564.09L565.12 54.3555H539.962Z" fill="#282828"/>
<path d="M512.125 76.1647C511.037 73.9895 509.377 71.2133 507.145 67.836C504.97 64.4015 502.422 60.6522 499.503 56.588C496.641 52.5238 493.578 48.3738 490.316 44.1379C487.11 39.8448 483.847 35.6947 480.527 31.6878C477.264 27.6809 474.173 24.0747 471.254 20.8691C470.51 20.0105 469.766 19.3236 469.022 18.8084C468.277 18.236 467.505 17.8353 466.703 17.6063C465.902 17.3201 465.015 17.177 464.042 17.177H461.466V14.9446L478.123 15.2022C478.924 16.2898 480.184 18.007 481.901 20.3539C483.618 22.6436 485.593 25.2767 487.826 28.2533C490.115 31.2299 492.462 34.3496 494.866 37.6123C497.328 40.8751 499.703 44.0234 501.993 47.0573C504.34 50.0911 506.429 52.8101 508.261 55.2142C510.093 57.5611 511.495 59.3643 512.468 60.6236L511.266 62.7701V26.6219C511.266 24.046 511.094 22.1284 510.751 20.8691C510.465 19.6098 509.806 18.7512 508.776 18.2932C507.746 17.8353 506.114 17.4918 503.882 17.2629L502.165 17.0912V14.9446L513.327 15.2022L523.802 14.9446V17.0912L522.085 17.2629C519.91 17.4918 518.278 17.8639 517.191 18.3791C516.16 18.837 515.473 19.6957 515.13 20.955C514.844 22.1571 514.701 24.046 514.701 26.6219V76.1647H512.125ZM461.809 76.5082V74.3616L463.526 74.1899C465.759 73.9609 467.39 73.6175 468.421 73.1595C469.451 72.7016 470.109 71.843 470.395 70.5836C470.739 69.2671 470.911 67.3209 470.911 64.745V19.5812L474.345 19.667V64.745C474.345 67.3209 474.488 69.2671 474.774 70.5836C475.118 71.843 475.805 72.7016 476.835 73.1595C477.923 73.6175 479.554 73.9609 481.729 74.1899L483.447 74.3616V76.5082L472.456 76.1647L461.809 76.5082Z" fill="#282828"/>
<path d="M451.05 77.1092C448.13 77.1092 445.841 76.1934 444.181 74.3616C442.521 72.4726 441.433 69.6105 440.918 65.7753C440.346 61.2532 439.287 57.5898 437.741 54.7849C436.253 51.9228 434.249 49.8335 431.731 48.5169C429.212 47.1431 426.064 46.4562 422.286 46.4562H418.078V44.1379H425.806C431.072 44.1379 434.85 43.0789 437.14 40.961C439.487 38.8431 440.66 35.4372 440.66 30.7433C440.66 26.164 439.544 22.8153 437.312 20.6974C435.137 18.5222 431.731 17.4346 427.094 17.4346H418.594V64.745C418.594 67.3209 418.737 69.2385 419.023 70.4978C419.366 71.7571 420.053 72.6157 421.084 73.0737C422.171 73.5316 423.803 73.8751 425.978 74.104L427.695 74.2758V76.4223L414.902 76.1647L402.194 76.4223V74.2758L403.911 74.104C406.144 73.8751 407.775 73.5316 408.805 73.0737C409.836 72.5585 410.494 71.6713 410.78 70.4119C411.124 69.1526 411.295 67.2636 411.295 64.745V26.6219C411.295 24.046 411.124 22.1284 410.78 20.8691C410.494 19.6098 409.836 18.7512 408.805 18.2932C407.775 17.8353 406.144 17.4918 403.911 17.2629L402.194 17.0912V14.9446L414.902 15.2022H426.922C434.078 15.2022 439.516 16.4901 443.236 19.066C446.957 21.5846 448.817 25.3054 448.817 30.2282C448.817 34.7503 447.272 38.3565 444.181 41.0469C441.147 43.7372 436.682 45.3972 430.786 46.0269L430.872 45.7693C435.623 45.7693 439.458 47.1145 442.378 49.8049C445.297 52.4952 447.129 56.4735 447.873 61.7398C448.503 65.7467 449.418 68.8092 450.62 70.9271C451.88 72.9878 453.397 74.0182 455.171 74.0182C455.915 74.0182 457.032 73.7033 458.52 73.0737L459.293 75.1344C458.262 75.7068 456.974 76.1647 455.429 76.5082C453.94 76.9089 452.481 77.1092 451.05 77.1092Z" fill="#282828"/>
<path d="M346.433 76.4223V74.2758L348.15 74.104C350.383 73.8178 352.014 73.4457 353.045 72.9878C354.075 72.5299 354.733 71.6713 355.019 70.4119C355.363 69.1526 355.535 67.2636 355.535 64.745V26.6219C355.535 24.046 355.363 22.1571 355.019 20.955C354.733 19.6957 354.075 18.837 353.045 18.3791C352.014 17.8639 350.383 17.4918 348.15 17.2629L346.433 17.0912V14.9446L359.141 15.2022H381.723L392.456 14.9446L392.627 21.3843L393.314 29.2837H391.253C390.853 26.765 390.338 24.7616 389.708 23.2733C389.136 21.7277 388.248 20.5543 387.046 19.7529C385.901 18.9515 384.299 18.4077 382.238 18.1215C380.177 17.8353 377.487 17.6922 374.167 17.6922H362.833V66.9774C362.833 69.6105 363.405 71.4137 364.55 72.3868C365.752 73.3026 368.013 73.7606 371.333 73.7606H379.319C382.753 73.7606 385.386 73.3599 387.218 72.5585C389.107 71.7571 390.481 70.2402 391.339 68.0078C392.198 65.7181 392.799 62.4267 393.142 58.1336H395.289L394.688 68.4371L394.43 76.1647H359.141L346.433 76.4223ZM378.546 56.7598C378.546 52.8101 378.059 49.9194 377.086 48.0876C376.113 46.1986 374.567 45.2541 372.45 45.2541H362.318V42.85H372.45C374.453 42.85 375.913 42.0486 376.829 40.4458C377.802 38.8431 378.374 36.2099 378.546 32.5465H380.692L380.435 44.0521L380.692 56.7598H378.546Z" fill="#282828"/>
<path d="M294.278 76.4223V74.2758L295.996 74.104C298.228 73.8178 299.86 73.4457 300.89 72.9878C301.92 72.5299 302.579 71.6713 302.865 70.4119C303.208 69.1526 303.38 67.2636 303.38 64.745V26.6219C303.38 24.046 303.208 22.1571 302.865 20.955C302.579 19.6957 301.92 18.837 300.89 18.3791C299.86 17.8639 298.228 17.4918 295.996 17.2629L294.278 17.0912V14.9446L306.986 15.2022H331.028L341.503 14.9446L341.761 21.4702L342.533 29.1119H340.473C340.129 25.1623 338.698 22.2715 336.179 20.4398C333.661 18.6081 329.854 17.6922 324.76 17.6922H310.678V64.745C310.678 67.2636 310.85 69.1812 311.193 70.4978C311.537 71.7571 312.224 72.6444 313.254 73.1595C314.342 73.6175 315.944 73.9323 318.062 74.104L320.982 74.2758V76.4223L307.072 76.1647H306.986L294.278 76.4223ZM326.391 56.7598C326.391 52.8101 325.905 49.9194 324.931 48.0876C323.958 46.1986 322.413 45.2541 320.295 45.2541H310.163V42.85H320.295C322.298 42.85 323.758 42.0486 324.674 40.4458C325.647 38.8431 326.219 36.2099 326.391 32.5465H328.538L328.28 44.0521L328.538 56.7598H326.391Z" fill="#282828"/>
<path d="M242.123 76.4223V74.2758L243.841 74.104C246.073 73.8178 247.704 73.4457 248.735 72.9878C249.765 72.5299 250.423 71.6713 250.71 70.4119C251.053 69.1526 251.225 67.2636 251.225 64.745V26.6219C251.225 24.046 251.053 22.1571 250.71 20.955C250.423 19.6957 249.765 18.837 248.735 18.3791C247.704 17.8639 246.073 17.4918 243.841 17.2629L242.123 17.0912V14.9446L254.831 15.2022H278.873L289.348 14.9446L289.606 21.4702L290.378 29.1119H288.318C287.974 25.1623 286.543 22.2715 284.024 20.4398C281.506 18.6081 277.699 17.6922 272.605 17.6922H258.523V64.745C258.523 67.2636 258.695 69.1812 259.038 70.4978C259.382 71.7571 260.069 72.6444 261.099 73.1595C262.187 73.6175 263.789 73.9323 265.907 74.104L268.827 74.2758V76.4223L254.917 76.1647H254.831L242.123 76.4223ZM274.236 56.7598C274.236 52.8101 273.75 49.9194 272.776 48.0876C271.803 46.1986 270.258 45.2541 268.14 45.2541H258.008V42.85H268.14C270.143 42.85 271.603 42.0486 272.519 40.4458C273.492 38.8431 274.064 36.2099 274.236 32.5465H276.383L276.125 44.0521L276.383 56.7598H274.236Z" fill="#282828"/>
<path d="M186.363 76.4223V74.2758L188.08 74.104C190.313 73.8178 191.944 73.4457 192.974 72.9878C194.005 72.5299 194.663 71.6713 194.949 70.4119C195.293 69.1526 195.464 67.2636 195.464 64.745V26.6219C195.464 24.046 195.293 22.1571 194.949 20.955C194.663 19.6957 194.005 18.837 192.974 18.3791C191.944 17.8639 190.313 17.4918 188.08 17.2629L186.363 17.0912V14.9446L199.071 15.2022H221.653L232.385 14.9446L232.557 21.3843L233.244 29.2837H231.183C230.783 26.765 230.268 24.7616 229.638 23.2733C229.065 21.7277 228.178 20.5543 226.976 19.7529C225.831 18.9515 224.229 18.4077 222.168 18.1215C220.107 17.8353 217.417 17.6922 214.097 17.6922H202.763V66.9774C202.763 69.6105 203.335 71.4137 204.48 72.3868C205.682 73.3026 207.943 73.7606 211.263 73.7606H219.248C222.683 73.7606 225.316 73.3599 227.148 72.5585C229.037 71.7571 230.411 70.2402 231.269 68.0078C232.128 65.7181 232.729 62.4267 233.072 58.1336H235.219L234.618 68.4371L234.36 76.1647H199.071L186.363 76.4223ZM218.476 56.7598C218.476 52.8101 217.989 49.9194 217.016 48.0876C216.043 46.1986 214.497 45.2541 212.379 45.2541H202.248V42.85H212.379C214.383 42.85 215.843 42.0486 216.758 40.4458C217.732 38.8431 218.304 36.2099 218.476 32.5465H220.622L220.365 44.0521L220.622 56.7598H218.476Z" fill="#282828"/>
<path d="M154.012 76.4223V74.2758L155.729 74.104C157.962 73.8178 159.593 73.4457 160.623 72.9878C161.654 72.5299 162.312 71.6713 162.598 70.4119C162.942 69.1526 163.114 67.2636 163.114 64.745V26.6219C163.114 24.046 162.942 22.1571 162.598 20.955C162.312 19.6957 161.654 18.837 160.623 18.3791C159.593 17.8639 157.962 17.4918 155.729 17.2629L154.012 17.0912V14.9446L166.806 15.2022L179.513 14.9446V17.0912L177.796 17.2629C175.621 17.4918 173.989 17.8639 172.902 18.3791C171.872 18.837 171.185 19.6957 170.841 20.955C170.555 22.1571 170.412 24.046 170.412 26.6219V64.745C170.412 67.2636 170.555 69.1526 170.841 70.4119C171.185 71.6713 171.872 72.5299 172.902 72.9878C173.989 73.4457 175.621 73.8178 177.796 74.104L179.513 74.2758V76.4223L166.806 76.1647L154.012 76.4223ZM114 76.4223V74.2758L115.717 74.104C117.95 73.8178 119.581 73.4457 120.611 72.9878C121.642 72.5299 122.3 71.6713 122.586 70.4119C122.93 69.1526 123.101 67.2636 123.101 64.745V26.6219C123.101 24.046 122.93 22.1571 122.586 20.955C122.3 19.6957 121.642 18.837 120.611 18.3791C119.581 17.8639 117.95 17.4918 115.717 17.2629L114 17.0912V14.9446L126.794 15.2022L139.501 14.9446V17.0912L137.784 17.2629C135.609 17.4918 133.977 17.8639 132.89 18.3791C131.859 18.837 131.173 19.6957 130.829 20.955C130.543 22.1571 130.4 24.046 130.4 26.6219V64.745C130.4 67.2636 130.543 69.1526 130.829 70.4119C131.173 71.6713 131.859 72.5299 132.89 72.9878C133.977 73.4457 135.609 73.8178 137.784 74.104L139.501 74.2758V76.4223L126.794 76.1647L114 76.4223ZM127.566 46.0269V43.2793H165.518V46.0269H127.566Z" fill="#282828"/>
<path d="M85 91.9117H0V-0.588318H85V91.9117ZM57.1631 7.12946L46.3428 6.91168V8.72711L47.7949 8.87262C49.6831 9.06628 51.0631 9.38122 51.9346 9.81696C52.8059 10.2043 53.3624 10.9306 53.6045 11.9957C53.8949 13.0124 54.04 14.6101 54.04 16.7886V30.8775H26.3711V16.7886C26.3711 14.6101 26.4923 13.0124 26.7344 11.9957C27.0249 10.9305 27.6061 10.2043 28.4775 9.81696C29.3974 9.3813 30.7768 9.06627 32.6162 8.87262L34.0693 8.72711V6.91168L23.3213 7.12946L12.5 6.91168V8.72711L13.9521 8.87262C15.8403 9.06627 17.2203 9.38124 18.0918 9.81696C18.9633 10.2043 19.5206 10.9305 19.7627 11.9957C20.0531 13.0124 20.1982 14.6102 20.1982 16.7886V49.0328C20.1982 51.1627 20.0531 52.7606 19.7627 53.8257C19.5206 54.8909 18.9633 55.6171 18.0918 56.0045C17.2203 56.3918 15.8403 56.7067 13.9521 56.9488L12.5 57.0943V58.9097L23.3213 58.692L34.0693 58.9097V57.0943L32.6162 56.9488C30.7768 56.7067 29.3973 56.3917 28.4775 56.0045C27.6061 55.6171 27.0249 54.8909 26.7344 53.8257C26.4924 52.7606 26.3711 51.1628 26.3711 49.0328V33.2017H32.2393C33.2724 33.3739 34.08 33.5871 34.6611 33.8453C35.5325 34.2326 36.0899 34.959 36.332 36.024C36.6225 37.0891 36.7676 38.7115 36.7676 40.8902V73.1343C36.7676 75.313 36.6225 76.9354 36.332 78.0005C36.0899 79.0656 35.5326 79.7919 34.6611 80.1793C33.7897 80.5665 32.4101 80.8567 30.5225 81.0504L29.0693 81.1959V83.0113L39.8174 82.7935L70.1738 83.0113L70.9004 67.5425H69.3027C68.9154 72.142 67.7292 75.4831 65.7441 77.565C63.8075 79.6467 60.8537 80.6871 56.8838 80.6871H51.4375C49.1136 80.6871 47.3223 80.4208 46.0635 79.8882C44.8531 79.3557 44.0295 78.3393 43.5938 76.8384C43.158 75.3376 42.9404 73.1587 42.9404 70.3023V40.0181C42.9405 38.2754 43.0855 36.9438 43.376 36.024C43.7149 35.0559 44.2962 34.3542 45.1191 33.9185C45.7151 33.603 46.4891 33.3649 47.4404 33.2017H54.04V49.0328C54.04 51.1628 53.8949 52.7606 53.6045 53.8257C53.3624 54.8908 52.8059 55.6171 51.9346 56.0045C51.0631 56.3918 49.6831 56.7067 47.7949 56.9488L46.3428 57.0943V58.9097L57.1631 58.692L67.9111 58.9097V57.0943L66.459 56.9488C64.6192 56.7067 63.2392 56.3918 62.3193 56.0045C61.448 55.6171 60.8666 54.8908 60.5762 53.8257C60.3342 52.7606 60.2139 51.1627 60.2139 49.0328V16.7886C60.2139 14.6102 60.3342 13.0124 60.5762 11.9957C60.8666 10.9306 61.448 10.2043 62.3193 9.81696C63.2392 9.38122 64.6192 9.06628 66.459 8.87262L67.9111 8.72711V6.91168L57.1631 7.12946Z" fill="#282828"/>
</g>
<defs>
<clipPath id="clip0_142_404">
<rect width="976" height="92" fill="white"/>
</clipPath>
</defs>
</svg>
