<svg width="610" height="73" viewBox="0 0 610 73" fill="none" xmlns="http://www.w3.org/2000/svg">
<g clip-path="url(#clip0_142_315)">
<path d="M579.341 55.3299V54.0118L580.396 53.9064C581.766 53.7658 582.768 53.5549 583.401 53.2737C584.033 52.9925 584.438 52.4653 584.613 51.692C584.824 50.9187 584.93 49.7412 584.93 48.1595V24.7504C584.93 23.1686 584.824 21.9912 584.613 21.2179C584.438 20.4446 584.033 19.9174 583.401 19.6362C582.768 19.355 581.766 19.1441 580.396 19.0035L579.341 18.8981V17.58L587.25 17.7381L595 17.58V18.8981L593.524 19.0562C592.434 19.1617 591.59 19.3726 590.993 19.6889C590.395 20.0052 589.974 20.5149 589.728 21.2179C589.517 21.8857 589.411 22.8523 589.411 24.1177V46.1033C589.411 48.1771 589.569 49.7588 589.886 50.8484C590.202 51.938 590.8 52.6762 591.678 53.0628C592.592 53.4494 593.893 53.6428 595.58 53.6428H599.534C602.416 53.6428 604.56 52.8871 605.966 51.3757C607.407 49.8643 608.269 47.439 608.55 44.0998H609.71L609.182 55.3299L587.144 55.1717L579.341 55.3299Z" fill="#282828"/>
<path d="M537.156 55.3299V54.0118L537.631 53.9591C538.896 53.8185 539.933 53.5725 540.742 53.221C541.55 52.8695 542.236 52.3422 542.798 51.6393C543.36 50.9011 543.887 49.917 544.38 48.6868L557.244 17.4745H558.826L571.374 48.6868C572.112 50.5145 572.885 51.815 573.694 52.5883C574.537 53.3264 575.627 53.7658 576.963 53.9064L578.017 54.0118V55.3299L571.479 55.1717L563.044 55.3299V54.0118L564.098 53.9064C565.856 53.7306 566.91 53.2737 567.262 52.5356C567.648 51.7623 567.49 50.4618 566.787 48.634L556.137 21.7978H557.402L546.33 48.634C545.803 49.9345 545.522 50.9539 545.487 51.692C545.452 52.395 545.733 52.9046 546.33 53.221C546.928 53.5373 547.877 53.7658 549.177 53.9064L550.232 54.0118V55.3299L543.536 55.1717L537.156 55.3299ZM548.914 41.78L549.599 40.0928H563.729L564.362 41.78H548.914Z" fill="#282828"/>
<path d="M517.482 55.7517C514.951 55.7517 512.596 55.2948 510.417 54.3809C508.273 53.4319 506.41 52.1138 504.829 50.4266C503.247 48.7043 502.017 46.7008 501.138 44.4162C500.259 42.0963 499.82 39.5656 499.82 36.824C499.82 34.0472 500.277 31.4638 501.191 29.0737C502.105 26.6484 503.37 24.5395 504.987 22.7469C506.639 20.9543 508.554 19.5483 510.734 18.529C512.913 17.5097 515.268 17 517.798 17C518.958 17 520.101 17.123 521.226 17.3691C522.35 17.58 523.545 18.0193 524.811 18.6872C525.584 19.0738 526.181 19.3374 526.603 19.478C527.025 19.6186 527.412 19.6889 527.763 19.6889C528.783 19.6889 529.292 19.0387 529.292 17.7381H530.61L530.505 23.8013L530.61 29.97H529.292C529.222 27.6853 528.677 25.6994 527.658 24.0122C526.674 22.2899 525.32 20.9543 523.598 20.0052C521.911 19.0562 519.96 18.5817 517.746 18.5817C513.774 18.5817 510.681 20.1634 508.466 23.3268C506.287 26.4902 505.198 30.9541 505.198 36.7186C505.198 42.3424 506.252 46.6657 508.361 49.6885C510.505 52.6762 513.563 54.17 517.535 54.17C519.398 54.17 521.102 53.8712 522.649 53.2737C524.196 52.641 525.426 51.815 526.34 50.7957C527.289 49.7764 527.763 48.6692 527.763 47.4741V45.9979C527.763 44.4513 527.394 43.3441 526.656 42.6763C525.953 42.0085 524.635 41.5867 522.702 41.4109L520.435 41.2V39.9347L529.187 40.1456L537.306 39.9347V41.2L534.934 41.4109C532.79 41.6218 531.717 43.1508 531.717 45.9979V46.9469C531.717 48.2825 532.104 49.6358 532.877 51.0066L533.616 52.3247L532.403 53.1155C531.559 51.8502 530.663 51.2175 529.714 51.2175C529.363 51.2175 529.046 51.2878 528.765 51.4284C528.519 51.5338 527.904 51.938 526.92 52.641C525.408 53.7306 523.897 54.5215 522.385 55.0136C520.874 55.5056 519.24 55.7517 517.482 55.7517Z" fill="#282828"/>
<path d="M464.421 55.3299V54.0118L465.475 53.9064C466.846 53.7306 467.848 53.5022 468.48 53.221C469.113 52.9398 469.517 52.4125 469.693 51.6393C469.904 50.866 470.009 49.7061 470.009 48.1595V24.7504C470.009 23.1686 469.904 22.0087 469.693 21.2706C469.517 20.4973 469.113 19.9701 468.48 19.6889C467.848 19.3726 466.846 19.1441 465.475 19.0035L464.421 18.8981V17.58L472.224 17.7381H486.09L492.68 17.58L492.786 21.5342L493.208 26.3848H491.942C491.696 24.8382 491.38 23.608 490.993 22.6941C490.642 21.7451 490.097 21.0246 489.359 20.5325C488.656 20.0404 487.672 19.7065 486.406 19.5307C485.141 19.355 483.489 19.2671 481.45 19.2671H474.491V49.5303C474.491 51.1472 474.842 52.2544 475.545 52.8519C476.283 53.4143 477.672 53.6955 479.71 53.6955H484.614C486.723 53.6955 488.339 53.4494 489.464 52.9574C490.624 52.4653 491.468 51.5338 491.995 50.163C492.522 48.7571 492.891 46.736 493.102 44.0998H494.42L494.051 50.4266L493.893 55.1717H472.224L464.421 55.3299ZM484.139 43.2563C484.139 40.831 483.84 39.056 483.243 37.9312C482.645 36.7713 481.696 36.1913 480.396 36.1913H474.174V34.7151H480.396C481.626 34.7151 482.522 34.223 483.085 33.2388C483.682 32.2546 484.034 30.6378 484.139 28.3883H485.457L485.299 35.4532L485.457 43.2563H484.139Z" fill="#282828"/>
<path d="M430.078 55.3299V54.0118L431.133 53.9064C432.504 53.7658 433.505 53.5549 434.138 53.2737C434.771 52.9925 435.175 52.4653 435.351 51.692C435.562 50.9187 435.667 49.7412 435.667 48.1595V24.7504C435.667 23.1686 435.562 21.9912 435.351 21.2179C435.175 20.4446 434.771 19.9174 434.138 19.6362C433.505 19.355 432.504 19.1441 431.133 19.0035L430.078 18.8981V17.58L437.987 17.7381L445.737 17.58V18.8981L444.261 19.0562C443.171 19.1617 442.328 19.3726 441.73 19.6889C441.133 20.0052 440.711 20.5149 440.465 21.2179C440.254 21.8857 440.149 22.8523 440.149 24.1177V46.1033C440.149 48.1771 440.307 49.7588 440.623 50.8484C440.939 51.938 441.537 52.6762 442.416 53.0628C443.33 53.4494 444.63 53.6428 446.317 53.6428H450.271C453.154 53.6428 455.298 52.8871 456.704 51.3757C458.145 49.8643 459.006 47.439 459.287 44.0998H460.447L459.92 55.3299L437.881 55.1717L430.078 55.3299Z" fill="#282828"/>
<path d="M405.83 55.1717C405.162 53.8361 404.142 52.1314 402.772 50.0576C401.436 47.9486 399.872 45.6464 398.079 43.1508C396.322 40.6552 394.441 38.1069 392.438 35.5059C390.469 32.8697 388.466 30.3215 386.427 27.861C384.424 25.4006 382.526 23.1862 380.733 21.2179C380.276 20.6907 379.819 20.2689 379.362 19.9525C378.906 19.601 378.431 19.355 377.939 19.2144C377.447 19.0387 376.902 18.9508 376.304 18.9508H374.723V17.58L384.951 17.7381C385.443 18.406 386.216 19.4604 387.271 20.9015C388.325 22.3075 389.538 23.9244 390.909 25.7521C392.315 27.5798 393.756 29.4955 395.232 31.4989C396.744 33.5024 398.202 35.4356 399.608 37.2985C401.049 39.1614 402.332 40.831 403.457 42.3072C404.582 43.7483 405.443 44.8555 406.04 45.6288L405.302 46.9469V24.7504C405.302 23.1686 405.197 21.9912 404.986 21.2179C404.81 20.4446 404.406 19.9174 403.773 19.6362C403.141 19.355 402.139 19.1441 400.768 19.0035L399.714 18.8981V17.58L406.568 17.7381L413 17.58V18.8981L411.945 19.0035C410.61 19.1441 409.608 19.3726 408.94 19.6889C408.308 19.9701 407.886 20.4973 407.675 21.2706C407.499 22.0087 407.411 23.1686 407.411 24.7504V55.1717H405.83ZM374.934 55.3826V54.0645L375.988 53.9591C377.359 53.8185 378.361 53.6076 378.993 53.3264C379.626 53.0452 380.03 52.518 380.206 51.7447C380.417 50.9363 380.522 49.7412 380.522 48.1595V20.427L382.631 20.4798V48.1595C382.631 49.7412 382.719 50.9363 382.895 51.7447C383.106 52.518 383.528 53.0452 384.16 53.3264C384.828 53.6076 385.83 53.8185 387.165 53.9591L388.22 54.0645V55.3826L381.471 55.1717L374.934 55.3826Z" fill="#282828"/>
<path d="M332.802 55.3299V54.0118L333.276 53.9591C334.542 53.8185 335.578 53.5725 336.387 53.221C337.195 52.8695 337.881 52.3422 338.443 51.6393C339.005 50.9011 339.533 49.917 340.025 48.6868L352.889 17.4745H354.471L367.019 48.6868C367.757 50.5145 368.53 51.815 369.339 52.5883C370.182 53.3264 371.272 53.7658 372.608 53.9064L373.662 54.0118V55.3299L367.125 55.1717L358.689 55.3299V54.0118L359.743 53.9064C361.501 53.7306 362.555 53.2737 362.907 52.5356C363.293 51.7623 363.135 50.4618 362.432 48.634L351.782 21.7978H353.047L341.976 48.634C341.448 49.9345 341.167 50.9539 341.132 51.692C341.097 52.395 341.378 52.9046 341.976 53.221C342.573 53.5373 343.522 53.7658 344.823 53.9064L345.877 54.0118V55.3299L339.181 55.1717L332.802 55.3299ZM344.559 41.78L345.244 40.0928H359.374L360.007 41.78H344.559Z" fill="#282828"/>
<path d="M327.465 55.1717C326.798 53.8361 325.778 52.1314 324.407 50.0576C323.072 47.9486 321.508 45.6464 319.715 43.1508C317.958 40.6552 316.077 38.1069 314.074 35.5059C312.105 32.8697 310.102 30.3215 308.063 27.861C306.06 25.4006 304.162 23.1862 302.369 21.2179C301.912 20.6907 301.455 20.2689 300.998 19.9525C300.541 19.601 300.067 19.355 299.575 19.2144C299.083 19.0387 298.538 18.9508 297.94 18.9508H296.359V17.58L306.587 17.7381C307.079 18.406 307.852 19.4604 308.907 20.9015C309.961 22.3075 311.174 23.9244 312.545 25.7521C313.951 27.5798 315.392 29.4955 316.868 31.4989C318.379 33.5024 319.838 35.4356 321.244 37.2985C322.685 39.1614 323.968 40.831 325.093 42.3072C326.218 43.7483 327.079 44.8555 327.676 45.6288L326.938 46.9469V24.7504C326.938 23.1686 326.833 21.9912 326.622 21.2179C326.446 20.4446 326.042 19.9174 325.409 19.6362C324.777 19.355 323.775 19.1441 322.404 19.0035L321.35 18.8981V17.58L328.204 17.7381L334.636 17.58V18.8981L333.581 19.0035C332.246 19.1441 331.244 19.3726 330.576 19.6889C329.943 19.9701 329.522 20.4973 329.311 21.2706C329.135 22.0087 329.047 23.1686 329.047 24.7504V55.1717H327.465ZM296.57 55.3826V54.0645L297.624 53.9591C298.995 53.8185 299.997 53.6076 300.629 53.3264C301.262 53.0452 301.666 52.518 301.842 51.7447C302.053 50.9363 302.158 49.7412 302.158 48.1595V20.427L304.267 20.4798V48.1595C304.267 49.7412 304.355 50.9363 304.531 51.7447C304.742 52.518 305.163 53.0452 305.796 53.3264C306.464 53.6076 307.466 53.8185 308.801 53.9591L309.856 54.0645V55.3826L303.107 55.1717L296.57 55.3826Z" fill="#282828"/>
<path d="M289.963 55.7517C288.17 55.7517 286.764 55.1893 285.745 54.0645C284.726 52.9046 284.058 51.1472 283.741 48.7922C283.39 46.0154 282.74 43.7659 281.791 42.0436C280.877 40.2862 279.647 39.0032 278.1 38.1948C276.553 37.3512 274.62 36.9294 272.3 36.9294H269.717V35.5059H274.462C277.696 35.5059 280.016 34.8557 281.422 33.5552C282.863 32.2546 283.583 30.1633 283.583 27.2811C283.583 24.4692 282.898 22.4129 281.527 21.1124C280.191 19.7768 278.1 19.109 275.253 19.109H270.033V48.1595C270.033 49.7412 270.121 50.9187 270.297 51.692C270.508 52.4653 270.93 52.9925 271.562 53.2737C272.23 53.5549 273.232 53.7658 274.568 53.9064L275.622 54.0118V55.3299L267.766 55.1717L259.963 55.3299V54.0118L261.018 53.9064C262.388 53.7658 263.39 53.5549 264.023 53.2737C264.656 52.9574 265.06 52.4125 265.235 51.6393C265.446 50.866 265.552 49.7061 265.552 48.1595V24.7504C265.552 23.1686 265.446 21.9912 265.235 21.2179C265.06 20.4446 264.656 19.9174 264.023 19.6362C263.39 19.355 262.388 19.1441 261.018 19.0035L259.963 18.8981V17.58L267.766 17.7381H275.147C279.541 17.7381 282.88 18.529 285.165 20.1107C287.45 21.6572 288.592 23.9419 288.592 26.9647C288.592 29.7415 287.643 31.9559 285.745 33.6079C283.882 35.2599 281.14 36.2792 277.52 36.6658L277.573 36.5077C280.49 36.5077 282.845 37.3337 284.638 38.9857C286.43 40.6377 287.555 43.0805 288.012 46.3142C288.399 48.7746 288.961 50.6551 289.699 51.9556C290.472 53.221 291.404 53.8537 292.493 53.8537C292.95 53.8537 293.636 53.6603 294.55 53.2737L295.024 54.5391C294.391 54.8905 293.601 55.1717 292.652 55.3826C291.738 55.6287 290.841 55.7517 289.963 55.7517Z" fill="#282828"/>
<path d="M225.724 55.3299V54.0118L226.778 53.9064C228.149 53.7306 229.151 53.5022 229.783 53.221C230.416 52.9398 230.82 52.4125 230.996 51.6393C231.207 50.866 231.312 49.7061 231.312 48.1595V24.7504C231.312 23.1686 231.207 22.0087 230.996 21.2706C230.82 20.4973 230.416 19.9701 229.783 19.6889C229.151 19.3726 228.149 19.1441 226.778 19.0035L225.724 18.8981V17.58L233.527 17.7381H247.393L253.983 17.58L254.089 21.5342L254.511 26.3848H253.245C252.999 24.8382 252.683 23.608 252.296 22.6941C251.945 21.7451 251.4 21.0246 250.662 20.5325C249.959 20.0404 248.975 19.7065 247.709 19.5307C246.444 19.355 244.792 19.2671 242.753 19.2671H235.794V49.5303C235.794 51.1472 236.145 52.2544 236.848 52.8519C237.587 53.4143 238.975 53.6955 241.014 53.6955H245.917C248.026 53.6955 249.643 53.4494 250.767 52.9574C251.927 52.4653 252.771 51.5338 253.298 50.163C253.825 48.7571 254.194 46.736 254.405 44.0998H255.723L255.354 50.4266L255.196 55.1717H233.527L225.724 55.3299ZM245.442 43.2563C245.442 40.831 245.144 39.056 244.546 37.9312C243.948 36.7713 242.999 36.1913 241.699 36.1913H235.478V34.7151H241.699C242.929 34.7151 243.825 34.223 244.388 33.2388C244.985 32.2546 245.337 30.6378 245.442 28.3883H246.76L246.602 35.4532L246.76 43.2563H245.442Z" fill="#282828"/>
<path d="M193.699 55.3299V54.0118L194.753 53.9064C196.124 53.7306 197.126 53.5022 197.758 53.221C198.391 52.9398 198.795 52.4125 198.971 51.6393C199.182 50.866 199.287 49.7061 199.287 48.1595V24.7504C199.287 23.1686 199.182 22.0087 198.971 21.2706C198.795 20.4973 198.391 19.9701 197.758 19.6889C197.126 19.3726 196.124 19.1441 194.753 19.0035L193.699 18.8981V17.58L201.502 17.7381H216.264L222.696 17.58L222.855 21.5869L223.329 26.2793H222.064C221.853 23.8541 220.974 22.079 219.428 20.9543C217.881 19.8295 215.544 19.2671 212.415 19.2671H203.769V48.1595C203.769 49.7061 203.874 50.8836 204.085 51.692C204.296 52.4653 204.718 53.0101 205.35 53.3264C206.018 53.6076 207.002 53.8009 208.303 53.9064L210.096 54.0118V55.3299L201.554 55.1717H201.502L193.699 55.3299ZM213.417 43.2563C213.417 40.831 213.118 39.056 212.521 37.9312C211.923 36.7713 210.974 36.1913 209.674 36.1913H203.452V34.7151H209.674C210.904 34.7151 211.8 34.223 212.363 33.2388C212.96 32.2546 213.312 30.6378 213.417 28.3883H214.735L214.577 35.4532L214.735 43.2563H213.417Z" fill="#282828"/>
<path d="M161.673 55.3299V54.0118L162.728 53.9064C164.099 53.7306 165.1 53.5022 165.733 53.221C166.366 52.9398 166.77 52.4125 166.946 51.6393C167.156 50.866 167.262 49.7061 167.262 48.1595V24.7504C167.262 23.1686 167.156 22.0087 166.946 21.2706C166.77 20.4973 166.366 19.9701 165.733 19.6889C165.1 19.3726 164.099 19.1441 162.728 19.0035L161.673 18.8981V17.58L169.476 17.7381H184.239L190.671 17.58L190.829 21.5869L191.304 26.2793H190.038C189.828 23.8541 188.949 22.079 187.402 20.9543C185.856 19.8295 183.518 19.2671 180.39 19.2671H171.743V48.1595C171.743 49.7061 171.849 50.8836 172.06 51.692C172.271 52.4653 172.692 53.0101 173.325 53.3264C173.993 53.6076 174.977 53.8009 176.278 53.9064L178.07 54.0118V55.3299L169.529 55.1717H169.476L161.673 55.3299ZM181.392 43.2563C181.392 40.831 181.093 39.056 180.495 37.9312C179.898 36.7713 178.949 36.1913 177.648 36.1913H171.427V34.7151H177.648C178.879 34.7151 179.775 34.223 180.337 33.2388C180.935 32.2546 181.286 30.6378 181.392 28.3883H182.71L182.552 35.4532L182.71 43.2563H181.392Z" fill="#282828"/>
<path d="M127.434 55.3299V54.0118L128.488 53.9064C129.859 53.7306 130.861 53.5022 131.494 53.221C132.126 52.9398 132.531 52.4125 132.706 51.6393C132.917 50.866 133.023 49.7061 133.023 48.1595V24.7504C133.023 23.1686 132.917 22.0087 132.706 21.2706C132.531 20.4973 132.126 19.9701 131.494 19.6889C130.861 19.3726 129.859 19.1441 128.488 19.0035L127.434 18.8981V17.58L135.237 17.7381H149.103L155.694 17.58L155.799 21.5342L156.221 26.3848H154.956C154.71 24.8382 154.393 23.608 154.007 22.6941C153.655 21.7451 153.11 21.0246 152.372 20.5325C151.669 20.0404 150.685 19.7065 149.42 19.5307C148.154 19.355 146.502 19.2671 144.464 19.2671H137.504V49.5303C137.504 51.1472 137.856 52.2544 138.559 52.8519C139.297 53.4143 140.685 53.6955 142.724 53.6955H147.627C149.736 53.6955 151.353 53.4494 152.478 52.9574C153.637 52.4653 154.481 51.5338 155.008 50.163C155.536 48.7571 155.905 46.736 156.115 44.0998H157.434L157.064 50.4266L156.906 55.1717H135.237L127.434 55.3299ZM147.153 43.2563C147.153 40.831 146.854 39.056 146.256 37.9312C145.659 36.7713 144.71 36.1913 143.409 36.1913H137.188V34.7151H143.409C144.639 34.7151 145.536 34.223 146.098 33.2388C146.696 32.2546 147.047 30.6378 147.153 28.3883H148.471L148.312 35.4532L148.471 43.2563H147.153Z" fill="#282828"/>
<path d="M107.569 55.3299V54.0118L108.624 53.9064C109.994 53.7306 110.996 53.5022 111.629 53.221C112.261 52.9398 112.666 52.4125 112.841 51.6393C113.052 50.866 113.158 49.7061 113.158 48.1595V24.7504C113.158 23.1686 113.052 22.0087 112.841 21.2706C112.666 20.4973 112.261 19.9701 111.629 19.6889C110.996 19.3726 109.994 19.1441 108.624 19.0035L107.569 18.8981V17.58L115.425 17.7381L123.228 17.58V18.8981L122.173 19.0035C120.838 19.1441 119.836 19.3726 119.168 19.6889C118.536 19.9701 118.114 20.4973 117.903 21.2706C117.727 22.0087 117.639 23.1686 117.639 24.7504V48.1595C117.639 49.7061 117.727 50.866 117.903 51.6393C118.114 52.4125 118.536 52.9398 119.168 53.221C119.836 53.5022 120.838 53.7306 122.173 53.9064L123.228 54.0118V55.3299L115.425 55.1717L107.569 55.3299ZM83 55.3299V54.0118L84.0545 53.9064C85.4253 53.7306 86.427 53.5022 87.0597 53.221C87.6924 52.9398 88.0966 52.4125 88.2723 51.6393C88.4832 50.866 88.5887 49.7061 88.5887 48.1595V24.7504C88.5887 23.1686 88.4832 22.0087 88.2723 21.2706C88.0966 20.4973 87.6924 19.9701 87.0597 19.6889C86.427 19.3726 85.4253 19.1441 84.0545 19.0035L83 18.8981V17.58L90.8558 17.7381L98.6588 17.58V18.8981L97.6044 19.0035C96.2687 19.1441 95.267 19.3726 94.5991 19.6889C93.9665 19.9701 93.5447 20.4973 93.3338 21.2706C93.158 22.0087 93.0702 23.1686 93.0702 24.7504V48.1595C93.0702 49.7061 93.158 50.866 93.3338 51.6393C93.5447 52.4125 93.9665 52.9398 94.5991 53.221C95.267 53.5022 96.2687 53.7306 97.6044 53.9064L98.6588 54.0118V55.3299L90.8558 55.1717L83 55.3299ZM91.3303 36.6658V34.9787H114.634V36.6658H91.3303Z" fill="#282828"/>
<path d="M67 72.9121H0V0H67V72.9121ZM45.0586 6.08398L36.5283 5.91211V7.34277L37.6738 7.45703C39.162 7.60967 40.2496 7.85776 40.9365 8.20117C41.6235 8.50647 42.0621 9.07937 42.2529 9.91895C42.4819 10.7204 42.5967 11.98 42.5967 13.6973V24.8027H20.7871V13.6973C20.7871 11.98 20.8824 10.7204 21.0732 9.91895C21.3022 9.07947 21.7595 8.5065 22.4463 8.20117C23.1714 7.85771 24.2598 7.60968 25.71 7.45703L26.8545 7.34277V5.91211L18.3828 6.08398L9.85352 5.91211V7.34277L10.998 7.45703C12.4862 7.60967 13.5738 7.85777 14.2607 8.20117C14.9477 8.50647 15.3863 9.07937 15.5771 9.91895C15.8061 10.7204 15.9209 11.9799 15.9209 13.6973V39.1133C15.9209 40.7924 15.8061 42.052 15.5771 42.8916C15.3863 43.731 14.9476 44.3031 14.2607 44.6084C13.5738 44.9137 12.4863 45.1617 10.998 45.3525L9.85352 45.4678V46.8984L18.3828 46.7266L26.8545 46.8984V45.4678L25.71 45.3525C24.2598 45.1617 23.1714 44.9137 22.4463 44.6084C21.7597 44.3031 21.3022 43.7308 21.0732 42.8916C20.8824 42.052 20.7871 40.7924 20.7871 39.1133V26.6338H25.4072C26.224 26.7696 26.8623 26.9376 27.3213 27.1416C28.0082 27.4469 28.4469 28.0198 28.6377 28.8594C28.8667 29.6989 28.9814 30.9772 28.9814 32.6943V58.1113C28.9814 59.8285 28.8667 61.1068 28.6377 61.9463C28.4469 62.7859 28.0082 63.3588 27.3213 63.6641C26.6343 63.9693 25.5467 64.198 24.0586 64.3506L22.9141 64.4648V65.8965L31.3857 65.7246L55.3135 65.8965L55.8867 53.7031H54.627C54.3217 57.3283 53.3867 59.9615 51.8223 61.6025C50.2958 63.2435 47.9672 64.0645 44.8379 64.0645H40.5449C38.7131 64.0645 37.3008 63.8544 36.3086 63.4346C35.3547 63.0147 34.7057 62.2132 34.3623 61.0303C34.0189 59.8473 33.8477 58.1301 33.8477 55.8789V32.0078C33.8477 30.634 33.9615 29.5845 34.1904 28.8594C34.4575 28.0962 34.9158 27.5427 35.5645 27.1992C36.0355 26.9499 36.6478 26.7625 37.4004 26.6338H42.5967V39.1133C42.5967 40.7924 42.4819 42.052 42.2529 42.8916C42.0621 43.731 41.6233 44.3031 40.9365 44.6084C40.2496 44.9137 39.1621 45.1617 37.6738 45.3525L36.5283 45.4678V46.8984L45.0586 46.7266L53.5303 46.8984V45.4678L52.3857 45.3525C50.9356 45.1617 49.8472 44.9137 49.1221 44.6084C48.4355 44.3031 47.978 43.7308 47.749 42.8916C47.5582 42.052 47.4619 40.7924 47.4619 39.1133V13.6973C47.4619 11.9799 47.5582 10.7204 47.749 9.91895C47.978 9.07945 48.4353 8.50649 49.1221 8.20117C49.8472 7.85771 50.9356 7.60968 52.3857 7.45703L53.5303 7.34277V5.91211L45.0586 6.08398Z" fill="#282828"/>
</g>
<defs>
<clipPath id="clip0_142_315">
<rect width="610" height="73" fill="white"/>
</clipPath>
</defs>
</svg>
