<svg width="491" height="51" viewBox="0 0 491 51" fill="none" xmlns="http://www.w3.org/2000/svg">
<rect x="8" y="6" width="34" height="37" fill="#282828"/>
<path d="M454.21 40.1283V39.0594L455.065 38.9739C456.177 38.8599 456.989 38.6888 457.502 38.4608C458.016 38.2328 458.343 37.8052 458.486 37.1782C458.657 36.5511 458.742 35.5962 458.742 34.3136V15.3302C458.742 14.0476 458.657 13.0927 458.486 12.4656C458.343 11.8386 458.016 11.411 457.502 11.183C456.989 10.955 456.177 10.7839 455.065 10.6699L454.21 10.5844V9.51553L460.624 9.6438L466.909 9.51553V10.5844L465.711 10.7127C464.828 10.7982 464.144 10.9692 463.659 11.2257C463.175 11.4823 462.833 11.8956 462.633 12.4656C462.462 13.0072 462.377 13.7911 462.377 14.8172V32.6461C462.377 34.3278 462.505 35.6105 462.761 36.4941C463.018 37.3777 463.502 37.9762 464.215 38.2898C464.956 38.6033 466.011 38.7601 467.379 38.7601H470.586C472.923 38.7601 474.662 38.1473 475.802 36.9216C476.97 35.696 477.669 33.7292 477.897 31.0214H478.837L478.41 40.1283L460.538 40L454.21 40.1283Z" fill="#282828"/>
<path d="M420.001 40.1283V39.0594L420.386 39.0166C421.412 38.9026 422.253 38.7031 422.909 38.418C423.564 38.133 424.12 37.7055 424.576 37.1354C425.032 36.5368 425.46 35.7387 425.859 34.7411L436.291 9.43002H437.574L447.749 34.7411C448.348 36.2233 448.975 37.2779 449.631 37.905C450.315 38.5036 451.198 38.8599 452.281 38.9739L453.137 39.0594V40.1283L447.835 40L440.994 40.1283V39.0594L441.849 38.9739C443.274 38.8314 444.129 38.4608 444.414 37.8622C444.728 37.2352 444.6 36.1805 444.03 34.6983L435.393 12.936H436.419L427.441 34.6983C427.013 35.753 426.785 36.5796 426.757 37.1782C426.728 37.7482 426.956 38.1615 427.441 38.418C427.925 38.6746 428.695 38.8599 429.749 38.9739L430.605 39.0594V40.1283L425.175 40L420.001 40.1283ZM429.536 29.1402L430.091 27.772H441.55L442.063 29.1402H429.536Z" fill="#282828"/>
<path d="M404.047 40.4703C401.995 40.4703 400.085 40.0998 398.318 39.3587C396.579 38.5891 395.068 37.5202 393.785 36.152C392.503 34.7554 391.505 33.1307 390.793 31.2779C390.08 29.3967 389.724 27.3445 389.724 25.1212C389.724 22.8694 390.094 20.7744 390.835 18.8362C391.576 16.8694 392.603 15.1592 393.914 13.7055C395.253 12.2519 396.807 11.1117 398.574 10.2851C400.341 9.45853 402.251 9.04523 404.303 9.04523C405.244 9.04523 406.17 9.14499 407.082 9.34451C407.994 9.51553 408.964 9.87183 409.99 10.4134C410.617 10.7269 411.101 10.9407 411.443 11.0547C411.785 11.1687 412.099 11.2257 412.384 11.2257C413.211 11.2257 413.624 10.6984 413.624 9.6438H414.693L414.607 14.5606L414.693 19.563H413.624C413.567 17.7103 413.125 16.0998 412.298 14.7317C411.5 13.335 410.403 12.2519 409.006 11.4823C407.638 10.7127 406.056 10.3279 404.261 10.3279C401.04 10.3279 398.531 11.6105 396.736 14.1759C394.968 16.7412 394.085 20.3611 394.085 25.0357C394.085 29.5962 394.94 33.1022 396.65 35.5535C398.389 37.9762 400.869 39.1876 404.09 39.1876C405.6 39.1876 406.983 38.9454 408.237 38.4608C409.491 37.9477 410.489 37.2779 411.23 36.4513C411.999 35.6247 412.384 34.7269 412.384 33.7577V32.5606C412.384 31.3064 412.085 30.4086 411.486 29.867C410.916 29.3254 409.847 28.9834 408.28 28.8409L406.441 28.6699V27.6437L413.538 27.8148L420.123 27.6437V28.6699L418.199 28.8409C416.46 29.0119 415.591 30.2518 415.591 32.5606V33.3302C415.591 34.4133 415.904 35.5107 416.531 36.6223L417.13 37.6912L416.146 38.3325C415.462 37.3064 414.736 36.7934 413.966 36.7934C413.681 36.7934 413.424 36.8504 413.196 36.9644C412.997 37.0499 412.498 37.3777 411.7 37.9477C410.474 38.8313 409.249 39.4727 408.023 39.8717C406.797 40.2708 405.472 40.4703 404.047 40.4703Z" fill="#282828"/>
<path d="M361.017 40.1283V39.0594L361.872 38.9739C362.984 38.8314 363.796 38.6461 364.309 38.418C364.823 38.19 365.15 37.7625 365.293 37.1354C365.464 36.5083 365.549 35.5677 365.549 34.3136V15.3302C365.549 14.0476 365.464 13.107 365.293 12.5084C365.15 11.8813 364.823 11.4538 364.309 11.2257C363.796 10.9692 362.984 10.7839 361.872 10.6699L361.017 10.5844V9.51553L367.345 9.6438H378.59L383.934 9.51553L384.02 12.7222L384.362 16.6557H383.336C383.136 15.4015 382.879 14.4039 382.566 13.6628C382.281 12.8932 381.839 12.3089 381.241 11.9098C380.67 11.5108 379.872 11.24 378.846 11.0975C377.82 10.955 376.48 10.8837 374.827 10.8837H369.184V35.4252C369.184 36.7363 369.469 37.6342 370.039 38.1188C370.637 38.5748 371.763 38.8028 373.416 38.8028H377.393C379.103 38.8028 380.414 38.6033 381.326 38.2043C382.267 37.8052 382.951 37.0499 383.378 35.9382C383.806 34.7981 384.105 33.1592 384.276 31.0214H385.345L385.046 36.152L384.917 40H367.345L361.017 40.1283ZM377.008 30.3373C377.008 28.3706 376.766 26.9312 376.281 26.019C375.796 25.0784 375.027 24.6081 373.972 24.6081H368.927V23.411H373.972C374.97 23.411 375.697 23.0119 376.153 22.2138C376.637 21.4157 376.922 20.1046 377.008 18.2804H378.077L377.948 24.0095L378.077 30.3373H377.008Z" fill="#282828"/>
<path d="M333.168 40.1283V39.0594L334.023 38.9739C335.135 38.8599 335.947 38.6888 336.46 38.4608C336.973 38.2328 337.301 37.8052 337.443 37.1782C337.615 36.5511 337.7 35.5962 337.7 34.3136V15.3302C337.7 14.0476 337.615 13.0927 337.443 12.4656C337.301 11.8386 336.973 11.411 336.46 11.183C335.947 10.955 335.135 10.7839 334.023 10.6699L333.168 10.5844V9.51553L339.581 9.6438L345.866 9.51553V10.5844L344.669 10.7127C343.786 10.7982 343.101 10.9692 342.617 11.2257C342.132 11.4823 341.79 11.8956 341.591 12.4656C341.42 13.0072 341.334 13.7911 341.334 14.8172V32.6461C341.334 34.3278 341.462 35.6105 341.719 36.4941C341.976 37.3777 342.46 37.9762 343.173 38.2898C343.914 38.6033 344.968 38.7601 346.337 38.7601H349.543C351.88 38.7601 353.619 38.1473 354.759 36.9216C355.928 35.696 356.626 33.7292 356.854 31.0214H357.795L357.367 40.1283L339.496 40L333.168 40.1283Z" fill="#282828"/>
<path d="M313.504 40C312.962 38.9169 312.136 37.5344 311.024 35.8527C309.941 34.1425 308.673 32.2756 307.219 30.2518C305.794 28.2281 304.269 26.1616 302.644 24.0523C301.048 21.9145 299.423 19.848 297.77 17.8528C296.145 15.8576 294.606 14.0618 293.152 12.4656C292.782 12.0381 292.411 11.696 292.041 11.4395C291.67 11.1545 291.285 10.955 290.886 10.8409C290.487 10.6984 290.046 10.6272 289.561 10.6272H288.278V9.51553L296.573 9.6438C296.972 10.1854 297.599 11.0405 298.454 12.2091C299.309 13.3493 300.293 14.6604 301.404 16.1426C302.544 17.6248 303.713 19.1782 304.91 20.8029C306.136 22.4276 307.319 23.9953 308.459 25.506C309.627 27.0167 310.668 28.3706 311.58 29.5677C312.492 30.7364 313.19 31.6342 313.675 32.2613L313.076 33.3302V15.3302C313.076 14.0476 312.991 13.0927 312.82 12.4656C312.677 11.8386 312.35 11.411 311.836 11.183C311.323 10.955 310.511 10.7839 309.399 10.6699L308.544 10.5844V9.51553L314.102 9.6438L319.319 9.51553V10.5844L318.463 10.6699C317.38 10.7839 316.568 10.9692 316.026 11.2257C315.513 11.4538 315.171 11.8813 315 12.5084C314.858 13.107 314.787 14.0476 314.787 15.3302V40H313.504ZM288.449 40.171V39.1021L289.304 39.0166C290.416 38.9026 291.228 38.7316 291.742 38.5036C292.255 38.2755 292.582 37.848 292.725 37.2209C292.896 36.5653 292.981 35.5962 292.981 34.3136V11.8243L294.692 11.8671V34.3136C294.692 35.5962 294.763 36.5653 294.905 37.2209C295.076 37.848 295.418 38.2755 295.932 38.5036C296.473 38.7316 297.285 38.9026 298.369 39.0166L299.224 39.1021V40.171L293.751 40L288.449 40.171Z" fill="#282828"/>
<path d="M254.283 40.1283V39.0594L254.668 39.0166C255.694 38.9026 256.535 38.7031 257.19 38.418C257.846 38.133 258.402 37.7055 258.858 37.1354C259.314 36.5368 259.741 35.7387 260.14 34.7411L270.573 9.43002H271.855L282.031 34.7411C282.63 36.2233 283.257 37.2779 283.912 37.905C284.596 38.5036 285.48 38.8599 286.563 38.9739L287.418 39.0594V40.1283L282.117 40L275.276 40.1283V39.0594L276.131 38.9739C277.556 38.8314 278.411 38.4608 278.696 37.8622C279.01 37.2352 278.881 36.1805 278.311 34.6983L269.675 12.936H270.701L261.722 34.6983C261.295 35.753 261.067 36.5796 261.038 37.1782C261.01 37.7482 261.238 38.1615 261.722 38.418C262.207 38.6746 262.977 38.8599 264.031 38.9739L264.886 39.0594V40.1283L259.456 40L254.283 40.1283ZM263.817 29.1402L264.373 27.772H275.832L276.345 29.1402H263.817Z" fill="#282828"/>
<path d="M249.956 40C249.414 38.9169 248.588 37.5344 247.476 35.8527C246.393 34.1425 245.124 32.2756 243.671 30.2518C242.245 28.2281 240.721 26.1616 239.096 24.0523C237.5 21.9145 235.875 19.848 234.222 17.8528C232.597 15.8576 231.058 14.0618 229.604 12.4656C229.234 12.0381 228.863 11.696 228.493 11.4395C228.122 11.1545 227.737 10.955 227.338 10.8409C226.939 10.6984 226.497 10.6272 226.013 10.6272H224.73V9.51553L233.025 9.6438C233.424 10.1854 234.051 11.0405 234.906 12.2091C235.761 13.3493 236.744 14.6604 237.856 16.1426C238.996 17.6248 240.165 19.1782 241.362 20.8029C242.588 22.4276 243.77 23.9953 244.911 25.506C246.079 27.0167 247.12 28.3706 248.032 29.5677C248.944 30.7364 249.642 31.6342 250.127 32.2613L249.528 33.3302V15.3302C249.528 14.0476 249.443 13.0927 249.272 12.4656C249.129 11.8386 248.801 11.411 248.288 11.183C247.775 10.955 246.963 10.7839 245.851 10.6699L244.996 10.5844V9.51553L250.554 9.6438L255.77 9.51553V10.5844L254.915 10.6699C253.832 10.7839 253.02 10.9692 252.478 11.2257C251.965 11.4538 251.623 11.8813 251.452 12.5084C251.31 13.107 251.238 14.0476 251.238 15.3302V40H249.956ZM224.901 40.171V39.1021L225.756 39.0166C226.868 38.9026 227.68 38.7316 228.193 38.5036C228.706 38.2755 229.034 37.848 229.177 37.2209C229.348 36.5653 229.433 35.5962 229.433 34.3136V11.8243L231.143 11.8671V34.3136C231.143 35.5962 231.215 36.5653 231.357 37.2209C231.528 37.848 231.87 38.2755 232.383 38.5036C232.925 38.7316 233.737 38.9026 234.82 39.0166L235.675 39.1021V40.171L230.203 40L224.901 40.171Z" fill="#282828"/>
<path d="M219.543 40.4703C218.09 40.4703 216.95 40.0142 216.123 39.1021C215.296 38.1615 214.755 36.7363 214.498 34.8266C214.213 32.5748 213.686 30.7506 212.916 29.3539C212.175 27.9288 211.178 26.8884 209.923 26.2328C208.669 25.5487 207.102 25.2067 205.22 25.2067H203.125V24.0523H206.973C209.596 24.0523 211.477 23.525 212.617 22.4704C213.786 21.4157 214.37 19.7198 214.37 17.3825C214.37 15.1022 213.814 13.4348 212.703 12.3801C211.619 11.297 209.923 10.7554 207.615 10.7554H203.382V34.3136C203.382 35.5962 203.453 36.5511 203.596 37.1782C203.767 37.8052 204.109 38.2328 204.622 38.4608C205.163 38.6888 205.976 38.8599 207.059 38.9739L207.914 39.0594V40.1283L201.543 40L195.216 40.1283V39.0594L196.071 38.9739C197.182 38.8599 197.995 38.6888 198.508 38.4608C199.021 38.2043 199.349 37.7625 199.491 37.1354C199.662 36.5083 199.748 35.5677 199.748 34.3136V15.3302C199.748 14.0476 199.662 13.0927 199.491 12.4656C199.349 11.8386 199.021 11.411 198.508 11.183C197.995 10.955 197.182 10.7839 196.071 10.6699L195.216 10.5844V9.51553L201.543 9.6438H207.529C211.092 9.6438 213.8 10.2851 215.653 11.5678C217.505 12.8219 218.432 14.6747 218.432 17.126C218.432 19.3777 217.662 21.1735 216.123 22.5131C214.612 23.8528 212.389 24.6794 209.453 24.9929L209.496 24.8647C211.862 24.8647 213.771 25.5345 215.225 26.8741C216.679 28.2138 217.591 30.1948 217.961 32.8171C218.275 34.8124 218.731 36.3373 219.33 37.3919C219.957 38.4181 220.712 38.9311 221.596 38.9311C221.966 38.9311 222.522 38.7743 223.263 38.4608L223.648 39.4869C223.135 39.772 222.494 40 221.724 40.171C220.983 40.3705 220.256 40.4703 219.543 40.4703Z" fill="#282828"/>
<path d="M167.45 40.1283V39.0594L168.305 38.9739C169.417 38.8314 170.229 38.6461 170.742 38.418C171.255 38.19 171.583 37.7625 171.725 37.1354C171.896 36.5083 171.982 35.5677 171.982 34.3136V15.3302C171.982 14.0476 171.896 13.107 171.725 12.5084C171.583 11.8813 171.255 11.4538 170.742 11.2257C170.229 10.9692 169.417 10.7839 168.305 10.6699L167.45 10.5844V9.51553L173.778 9.6438H185.022L190.367 9.51553L190.452 12.7222L190.794 16.6557H189.768C189.569 15.4015 189.312 14.4039 188.998 13.6628C188.713 12.8932 188.272 12.3089 187.673 11.9098C187.103 11.5108 186.305 11.24 185.279 11.0975C184.253 10.955 182.913 10.8837 181.26 10.8837H175.616V35.4252C175.616 36.7363 175.901 37.6342 176.471 38.1188C177.07 38.5748 178.196 38.8028 179.849 38.8028H183.825C185.535 38.8028 186.846 38.6033 187.759 38.2043C188.699 37.8052 189.383 37.0499 189.811 35.9382C190.238 34.7981 190.538 33.1592 190.709 31.0214H191.778L191.478 36.152L191.35 40H173.778L167.45 40.1283ZM183.44 30.3373C183.44 28.3706 183.198 26.9312 182.713 26.019C182.229 25.0784 181.459 24.6081 180.405 24.6081H175.36V23.411H180.405C181.402 23.411 182.129 23.0119 182.585 22.2138C183.07 21.4157 183.355 20.1046 183.44 18.2804H184.509L184.381 24.0095L184.509 30.3373H183.44Z" fill="#282828"/>
<path d="M141.479 40.1283V39.0594L142.335 38.9739C143.446 38.8314 144.259 38.6461 144.772 38.418C145.285 38.19 145.612 37.7625 145.755 37.1354C145.926 36.5083 146.012 35.5677 146.012 34.3136V15.3302C146.012 14.0476 145.926 13.107 145.755 12.5084C145.612 11.8813 145.285 11.4538 144.772 11.2257C144.259 10.9692 143.446 10.7839 142.335 10.6699L141.479 10.5844V9.51553L147.807 9.6438H159.779L164.995 9.51553L165.123 12.7649L165.508 16.5701H164.482C164.311 14.6034 163.598 13.164 162.344 12.2519C161.09 11.3398 159.194 10.8837 156.658 10.8837H149.646V34.3136C149.646 35.5677 149.731 36.5226 149.902 37.1782C150.073 37.8052 150.415 38.247 150.928 38.5036C151.47 38.7316 152.268 38.8884 153.323 38.9739L154.776 39.0594V40.1283L147.85 40H147.807L141.479 40.1283ZM157.47 30.3373C157.47 28.3706 157.228 26.9312 156.743 26.019C156.259 25.0784 155.489 24.6081 154.434 24.6081H149.389V23.411H154.434C155.432 23.411 156.159 23.0119 156.615 22.2138C157.099 21.4157 157.384 20.1046 157.47 18.2804H158.539L158.411 24.0095L158.539 30.3373H157.47Z" fill="#282828"/>
<path d="M115.509 40.1283V39.0594L116.364 38.9739C117.476 38.8314 118.288 38.6461 118.801 38.418C119.314 38.19 119.642 37.7625 119.785 37.1354C119.956 36.5083 120.041 35.5677 120.041 34.3136V15.3302C120.041 14.0476 119.956 13.107 119.785 12.5084C119.642 11.8813 119.314 11.4538 118.801 11.2257C118.288 10.9692 117.476 10.7839 116.364 10.6699L115.509 10.5844V9.51553L121.837 9.6438H133.808L139.024 9.51553L139.153 12.7649L139.537 16.5701H138.511C138.34 14.6034 137.628 13.164 136.374 12.2519C135.119 11.3398 133.224 10.8837 130.687 10.8837H123.675V34.3136C123.675 35.5677 123.761 36.5226 123.932 37.1782C124.103 37.8052 124.445 38.247 124.958 38.5036C125.5 38.7316 126.298 38.8884 127.352 38.9739L128.806 39.0594V40.1283L121.88 40H121.837L115.509 40.1283ZM131.499 30.3373C131.499 28.3706 131.257 26.9312 130.773 26.019C130.288 25.0784 129.518 24.6081 128.464 24.6081H123.419V23.411H128.464C129.461 23.411 130.188 23.0119 130.644 22.2138C131.129 21.4157 131.414 20.1046 131.499 18.2804H132.568L132.44 24.0095L132.568 30.3373H131.499Z" fill="#282828"/>
<path d="M87.7432 40.1283V39.0594L88.5983 38.9739C89.7099 38.8314 90.5223 38.6461 91.0353 38.418C91.5484 38.19 91.8762 37.7625 92.0187 37.1354C92.1897 36.5083 92.2752 35.5677 92.2752 34.3136V15.3302C92.2752 14.0476 92.1897 13.107 92.0187 12.5084C91.8762 11.8813 91.5484 11.4538 91.0353 11.2257C90.5223 10.9692 89.7099 10.7839 88.5983 10.6699L87.7432 10.5844V9.51553L94.0709 9.6438H105.316L110.66 9.51553L110.745 12.7222L111.088 16.6557H110.061C109.862 15.4015 109.605 14.4039 109.292 13.6628C109.007 12.8932 108.565 12.3089 107.966 11.9098C107.396 11.5108 106.598 11.24 105.572 11.0975C104.546 10.955 103.206 10.8837 101.553 10.8837H95.9094V35.4252C95.9094 36.7363 96.1944 37.6342 96.7645 38.1188C97.3631 38.5748 98.489 38.8028 100.142 38.8028H104.118C105.829 38.8028 107.14 38.6033 108.052 38.2043C108.992 37.8052 109.677 37.0499 110.104 35.9382C110.532 34.7981 110.831 33.1592 111.002 31.0214H112.071L111.772 36.152L111.643 40H94.0709L87.7432 40.1283ZM103.734 30.3373C103.734 28.3706 103.491 26.9312 103.007 26.019C102.522 25.0784 101.753 24.6081 100.698 24.6081H95.6529V23.411H100.698C101.696 23.411 102.422 23.0119 102.879 22.2138C103.363 21.4157 103.648 20.1046 103.734 18.2804H104.802L104.674 24.0095L104.802 30.3373H103.734Z" fill="#282828"/>
<path d="M71.6341 40.1283V39.0594L72.4892 38.9739C73.6009 38.8314 74.4132 38.6461 74.9263 38.418C75.4393 38.19 75.7671 37.7625 75.9096 37.1354C76.0807 36.5083 76.1662 35.5677 76.1662 34.3136V15.3302C76.1662 14.0476 76.0807 13.107 75.9096 12.5084C75.7671 11.8813 75.4393 11.4538 74.9263 11.2257C74.4132 10.9692 73.6009 10.7839 72.4892 10.6699L71.6341 10.5844V9.51553L78.0047 9.6438L84.3324 9.51553V10.5844L83.4773 10.6699C82.3942 10.7839 81.5818 10.9692 81.0403 11.2257C80.5272 11.4538 80.1852 11.8813 80.0141 12.5084C79.8716 13.107 79.8004 14.0476 79.8004 15.3302V34.3136C79.8004 35.5677 79.8716 36.5083 80.0141 37.1354C80.1852 37.7625 80.5272 38.19 81.0403 38.418C81.5818 38.6461 82.3942 38.8314 83.4773 38.9739L84.3324 39.0594V40.1283L78.0047 40L71.6341 40.1283ZM51.7102 40.1283V39.0594L52.5653 38.9739C53.6769 38.8314 54.4893 38.6461 55.0024 38.418C55.5154 38.19 55.8432 37.7625 55.9857 37.1354C56.1567 36.5083 56.2423 35.5677 56.2423 34.3136V15.3302C56.2423 14.0476 56.1567 13.107 55.9857 12.5084C55.8432 11.8813 55.5154 11.4538 55.0024 11.2257C54.4893 10.9692 53.6769 10.7839 52.5653 10.6699L51.7102 10.5844V9.51553L58.0807 9.6438L64.4085 9.51553V10.5844L63.5534 10.6699C62.4703 10.7839 61.6579 10.9692 61.1164 11.2257C60.6033 11.4538 60.2612 11.8813 60.0902 12.5084C59.9477 13.107 59.8764 14.0476 59.8764 15.3302V34.3136C59.8764 35.5677 59.9477 36.5083 60.0902 37.1354C60.2612 37.7625 60.6033 38.19 61.1164 38.418C61.6579 38.6461 62.4703 38.8314 63.5534 38.9739L64.4085 39.0594V40.1283L58.0807 40L51.7102 40.1283ZM58.4655 24.9929V23.6248H77.3633V24.9929H58.4655Z" fill="#282828"/>
<path d="M26.5369 29.7991V29.0729L27.1179 29.0148C27.8731 28.918 28.4251 28.7921 28.7737 28.6372C29.1222 28.4823 29.345 28.1918 29.4418 27.7657C29.558 27.3397 29.6161 26.7006 29.6161 25.8485V12.9507C29.6161 12.0792 29.558 11.4401 29.4418 11.0334C29.345 10.6074 29.1222 10.3169 28.7737 10.162C28.4251 9.98767 27.8731 9.86179 27.1179 9.78433L26.5369 9.72623V9L30.8652 9.08715L35.1645 9V9.72623L34.5835 9.78433C33.8476 9.86179 33.2956 9.98767 32.9277 10.162C32.5791 10.3169 32.3467 10.6074 32.2305 11.0334C32.1337 11.4401 32.0853 12.0792 32.0853 12.9507V25.8485C32.0853 26.7006 32.1337 27.3397 32.2305 27.7657C32.3467 28.1918 32.5791 28.4823 32.9277 28.6372C33.2956 28.7921 33.8476 28.918 34.5835 29.0148L35.1645 29.0729V29.7991L30.8652 29.712L26.5369 29.7991ZM13 29.7991V29.0729L13.581 29.0148C14.3363 28.918 14.8882 28.7921 15.2368 28.6372C15.5854 28.4823 15.8081 28.1918 15.9049 27.7657C16.0211 27.3397 16.0792 26.7006 16.0792 25.8485V12.9507C16.0792 12.0792 16.0211 11.4401 15.9049 11.0334C15.8081 10.6074 15.5854 10.3169 15.2368 10.162C14.8882 9.98767 14.3363 9.86179 13.581 9.78433L13 9.72623V9L17.3283 9.08715L21.6276 9V9.72623L21.0466 9.78433C20.3107 9.86179 19.7588 9.98767 19.3908 10.162C19.0422 10.3169 18.8098 10.6074 18.6936 11.0334C18.5968 11.4401 18.5484 12.0792 18.5484 12.9507V25.8485C18.5484 26.7006 18.5968 27.3397 18.6936 27.7657C18.8098 28.1918 19.0422 28.4823 19.3908 28.6372C19.7588 28.7921 20.3107 28.918 21.0466 29.0148L21.6276 29.0729V29.7991L17.3283 29.712L13 29.7991ZM17.5898 19.5158V18.5862H30.4295V19.5158H17.5898Z" fill="white"/>
<path d="M19.6278 39.4398V38.7135L20.2088 38.6554C20.9641 38.578 21.516 38.4618 21.8646 38.3068C22.2132 38.1519 22.4359 37.8614 22.5327 37.4354C22.6489 37.0093 22.707 36.3606 22.707 35.4891V22.5913C22.707 21.7198 22.6489 21.0711 22.5327 20.645C22.4359 20.2189 22.2132 19.9285 21.8646 19.7735C21.516 19.6186 20.9641 19.5024 20.2088 19.4249L19.6278 19.3668V18.6406L23.9852 18.7278L28.2554 18.6406V19.3668L27.442 19.454C26.8417 19.5121 26.3769 19.6283 26.0477 19.8026C25.7184 19.9769 25.486 20.2577 25.3505 20.645C25.2343 21.013 25.1762 21.5455 25.1762 22.2427V34.3562C25.1762 35.4988 25.2633 36.3702 25.4376 36.9706C25.6119 37.5709 25.9411 37.9776 26.4253 38.1906C26.9288 38.4037 27.6454 38.5102 28.5749 38.5102H30.7536C32.3416 38.5102 33.523 38.0938 34.2976 37.2611C35.0916 36.4283 35.5661 35.0921 35.721 33.2523H36.3601L36.0696 39.4398L23.9271 39.3526L19.6278 39.4398Z" fill="white"/>
</svg>
